<?xml version="1.0" encoding="utf-8" standalone="no"?>
<!DOCTYPE svg PUBLIC "-//W3C//DTD SVG 1.1//EN"
  "http://www.w3.org/Graphics/SVG/1.1/DTD/svg11.dtd">
<!-- Created with matplotlib (https://matplotlib.org/) -->
<svg height="288pt" version="1.1" viewBox="0 0 432 288" width="432pt" xmlns="http://www.w3.org/2000/svg" xmlns:xlink="http://www.w3.org/1999/xlink">
 <defs>
  <style type="text/css">
*{stroke-linecap:butt;stroke-linejoin:round;}
  </style>
 </defs>
 <g id="figure_1">
  <g id="patch_1">
   <path d="M 0 288 
L 432 288 
L 432 0 
L 0 0 
z
" style="fill:#ffffff;"/>
  </g>
  <g id="axes_1">
   <g id="patch_2">
    <path d="M 54 252 
L 388.8 252 
L 388.8 34.56 
L 54 34.56 
z
" style="fill:#ffffff;"/>
   </g>
   <g id="matplotlib.axis_1">
    <g id="xtick_1">
     <g id="line2d_1">
      <defs>
       <path d="M 0 0 
L 0 3.5 
" id="m75acd84367" style="stroke:#000000;stroke-width:0.8;"/>
      </defs>
      <g>
       <use style="stroke:#000000;stroke-width:0.8;" x="54" xlink:href="#m75acd84367" y="252"/>
      </g>
     </g>
     <g id="text_1">
      <!-- $\mathdefault{10}$ -->
      <defs>
       <path d="M 12.40625 8.296875 
L 28.515625 8.296875 
L 28.515625 63.921875 
L 10.984375 60.40625 
L 10.984375 69.390625 
L 28.421875 72.90625 
L 38.28125 72.90625 
L 38.28125 8.296875 
L 54.390625 8.296875 
L 54.390625 0 
L 12.40625 0 
z
" id="DejaVuSans-49"/>
       <path d="M 31.78125 66.40625 
Q 24.171875 66.40625 20.328125 58.90625 
Q 16.5 51.421875 16.5 36.375 
Q 16.5 21.390625 20.328125 13.890625 
Q 24.171875 6.390625 31.78125 6.390625 
Q 39.453125 6.390625 43.28125 13.890625 
Q 47.125 21.390625 47.125 36.375 
Q 47.125 51.421875 43.28125 58.90625 
Q 39.453125 66.40625 31.78125 66.40625 
z
M 31.78125 74.21875 
Q 44.046875 74.21875 50.515625 64.515625 
Q 56.984375 54.828125 56.984375 36.375 
Q 56.984375 17.96875 50.515625 8.265625 
Q 44.046875 -1.421875 31.78125 -1.421875 
Q 19.53125 -1.421875 13.0625 8.265625 
Q 6.59375 17.96875 6.59375 36.375 
Q 6.59375 54.828125 13.0625 64.515625 
Q 19.53125 74.21875 31.78125 74.21875 
z
" id="DejaVuSans-48"/>
      </defs>
      <g transform="translate(47.6 266.598437)scale(0.1 -0.1)">
       <use transform="translate(0 0.78125)" xlink:href="#DejaVuSans-49"/>
       <use transform="translate(63.623047 0.78125)" xlink:href="#DejaVuSans-48"/>
      </g>
     </g>
    </g>
    <g id="xtick_2">
     <g id="line2d_2">
      <g>
       <use style="stroke:#000000;stroke-width:0.8;" x="165.6" xlink:href="#m75acd84367" y="252"/>
      </g>
     </g>
     <g id="text_2">
      <!-- $\mathdefault{100}$ -->
      <g transform="translate(156.05 266.598437)scale(0.1 -0.1)">
       <use transform="translate(0 0.78125)" xlink:href="#DejaVuSans-49"/>
       <use transform="translate(63.623047 0.78125)" xlink:href="#DejaVuSans-48"/>
       <use transform="translate(127.246094 0.78125)" xlink:href="#DejaVuSans-48"/>
      </g>
     </g>
    </g>
    <g id="xtick_3">
     <g id="line2d_3">
      <g>
       <use style="stroke:#000000;stroke-width:0.8;" x="277.2" xlink:href="#m75acd84367" y="252"/>
      </g>
     </g>
     <g id="text_3">
      <!-- $\mathdefault{10^{3}}$ -->
      <defs>
       <path d="M 40.578125 39.3125 
Q 47.65625 37.796875 51.625 33 
Q 55.609375 28.21875 55.609375 21.1875 
Q 55.609375 10.40625 48.1875 4.484375 
Q 40.765625 -1.421875 27.09375 -1.421875 
Q 22.515625 -1.421875 17.65625 -0.515625 
Q 12.796875 0.390625 7.625 2.203125 
L 7.625 11.71875 
Q 11.71875 9.328125 16.59375 8.109375 
Q 21.484375 6.890625 26.8125 6.890625 
Q 36.078125 6.890625 40.9375 10.546875 
Q 45.796875 14.203125 45.796875 21.1875 
Q 45.796875 27.640625 41.28125 31.265625 
Q 36.765625 34.90625 28.71875 34.90625 
L 20.21875 34.90625 
L 20.21875 43.015625 
L 29.109375 43.015625 
Q 36.375 43.015625 40.234375 45.921875 
Q 44.09375 48.828125 44.09375 54.296875 
Q 44.09375 59.90625 40.109375 62.90625 
Q 36.140625 65.921875 28.71875 65.921875 
Q 24.65625 65.921875 20.015625 65.03125 
Q 15.375 64.15625 9.8125 62.3125 
L 9.8125 71.09375 
Q 15.4375 72.65625 20.34375 73.4375 
Q 25.25 74.21875 29.59375 74.21875 
Q 40.828125 74.21875 47.359375 69.109375 
Q 53.90625 64.015625 53.90625 55.328125 
Q 53.90625 49.265625 50.4375 45.09375 
Q 46.96875 40.921875 40.578125 39.3125 
z
" id="DejaVuSans-51"/>
      </defs>
      <g transform="translate(268.4 266.598437)scale(0.1 -0.1)">
       <use transform="translate(0 0.765625)" xlink:href="#DejaVuSans-49"/>
       <use transform="translate(63.623047 0.765625)" xlink:href="#DejaVuSans-48"/>
       <use transform="translate(128.203125 39.046875)scale(0.7)" xlink:href="#DejaVuSans-51"/>
      </g>
     </g>
    </g>
    <g id="xtick_4">
     <g id="line2d_4">
      <g>
       <use style="stroke:#000000;stroke-width:0.8;" x="388.8" xlink:href="#m75acd84367" y="252"/>
      </g>
     </g>
     <g id="text_4">
      <!-- $\mathdefault{10^{4}}$ -->
      <defs>
       <path d="M 37.796875 64.3125 
L 12.890625 25.390625 
L 37.796875 25.390625 
z
M 35.203125 72.90625 
L 47.609375 72.90625 
L 47.609375 25.390625 
L 58.015625 25.390625 
L 58.015625 17.1875 
L 47.609375 17.1875 
L 47.609375 0 
L 37.796875 0 
L 37.796875 17.1875 
L 4.890625 17.1875 
L 4.890625 26.703125 
z
" id="DejaVuSans-52"/>
      </defs>
      <g transform="translate(380 266.598437)scale(0.1 -0.1)">
       <use transform="translate(0 0.684375)" xlink:href="#DejaVuSans-49"/>
       <use transform="translate(63.623047 0.684375)" xlink:href="#DejaVuSans-48"/>
       <use transform="translate(128.203125 38.965625)scale(0.7)" xlink:href="#DejaVuSans-52"/>
      </g>
     </g>
    </g>
    <g id="xtick_5">
     <g id="line2d_5">
      <defs>
       <path d="M 0 0 
L 0 2 
" id="m737b4fb439" style="stroke:#000000;stroke-width:0.6;"/>
      </defs>
      <g>
       <use style="stroke:#000000;stroke-width:0.6;" x="87.594948" xlink:href="#m737b4fb439" y="252"/>
      </g>
     </g>
    </g>
    <g id="xtick_6">
     <g id="line2d_6">
      <g>
       <use style="stroke:#000000;stroke-width:0.6;" x="107.246732" xlink:href="#m737b4fb439" y="252"/>
      </g>
     </g>
    </g>
    <g id="xtick_7">
     <g id="line2d_7">
      <g>
       <use style="stroke:#000000;stroke-width:0.6;" x="121.189895" xlink:href="#m737b4fb439" y="252"/>
      </g>
     </g>
    </g>
    <g id="xtick_8">
     <g id="line2d_8">
      <g>
       <use style="stroke:#000000;stroke-width:0.6;" x="132.005052" xlink:href="#m737b4fb439" y="252"/>
      </g>
     </g>
    </g>
    <g id="xtick_9">
     <g id="line2d_9">
      <g>
       <use style="stroke:#000000;stroke-width:0.6;" x="140.84168" xlink:href="#m737b4fb439" y="252"/>
      </g>
     </g>
    </g>
    <g id="xtick_10">
     <g id="line2d_10">
      <g>
       <use style="stroke:#000000;stroke-width:0.6;" x="148.312941" xlink:href="#m737b4fb439" y="252"/>
      </g>
     </g>
    </g>
    <g id="xtick_11">
     <g id="line2d_11">
      <g>
       <use style="stroke:#000000;stroke-width:0.6;" x="154.784843" xlink:href="#m737b4fb439" y="252"/>
      </g>
     </g>
    </g>
    <g id="xtick_12">
     <g id="line2d_12">
      <g>
       <use style="stroke:#000000;stroke-width:0.6;" x="160.493464" xlink:href="#m737b4fb439" y="252"/>
      </g>
     </g>
    </g>
    <g id="xtick_13">
     <g id="line2d_13">
      <g>
       <use style="stroke:#000000;stroke-width:0.6;" x="199.194948" xlink:href="#m737b4fb439" y="252"/>
      </g>
     </g>
    </g>
    <g id="xtick_14">
     <g id="line2d_14">
      <g>
       <use style="stroke:#000000;stroke-width:0.6;" x="218.846732" xlink:href="#m737b4fb439" y="252"/>
      </g>
     </g>
    </g>
    <g id="xtick_15">
     <g id="line2d_15">
      <g>
       <use style="stroke:#000000;stroke-width:0.6;" x="232.789895" xlink:href="#m737b4fb439" y="252"/>
      </g>
     </g>
    </g>
    <g id="xtick_16">
     <g id="line2d_16">
      <g>
       <use style="stroke:#000000;stroke-width:0.6;" x="243.605052" xlink:href="#m737b4fb439" y="252"/>
      </g>
     </g>
    </g>
    <g id="xtick_17">
     <g id="line2d_17">
      <g>
       <use style="stroke:#000000;stroke-width:0.6;" x="252.44168" xlink:href="#m737b4fb439" y="252"/>
      </g>
     </g>
    </g>
    <g id="xtick_18">
     <g id="line2d_18">
      <g>
       <use style="stroke:#000000;stroke-width:0.6;" x="259.912941" xlink:href="#m737b4fb439" y="252"/>
      </g>
     </g>
    </g>
    <g id="xtick_19">
     <g id="line2d_19">
      <g>
       <use style="stroke:#000000;stroke-width:0.6;" x="266.384843" xlink:href="#m737b4fb439" y="252"/>
      </g>
     </g>
    </g>
    <g id="xtick_20">
     <g id="line2d_20">
      <g>
       <use style="stroke:#000000;stroke-width:0.6;" x="272.093464" xlink:href="#m737b4fb439" y="252"/>
      </g>
     </g>
    </g>
    <g id="xtick_21">
     <g id="line2d_21">
      <g>
       <use style="stroke:#000000;stroke-width:0.6;" x="310.794948" xlink:href="#m737b4fb439" y="252"/>
      </g>
     </g>
    </g>
    <g id="xtick_22">
     <g id="line2d_22">
      <g>
       <use style="stroke:#000000;stroke-width:0.6;" x="330.446732" xlink:href="#m737b4fb439" y="252"/>
      </g>
     </g>
    </g>
    <g id="xtick_23">
     <g id="line2d_23">
      <g>
       <use style="stroke:#000000;stroke-width:0.6;" x="344.389895" xlink:href="#m737b4fb439" y="252"/>
      </g>
     </g>
    </g>
    <g id="xtick_24">
     <g id="line2d_24">
      <g>
       <use style="stroke:#000000;stroke-width:0.6;" x="355.205052" xlink:href="#m737b4fb439" y="252"/>
      </g>
     </g>
    </g>
    <g id="xtick_25">
     <g id="line2d_25">
      <g>
       <use style="stroke:#000000;stroke-width:0.6;" x="364.04168" xlink:href="#m737b4fb439" y="252"/>
      </g>
     </g>
    </g>
    <g id="xtick_26">
     <g id="line2d_26">
      <g>
       <use style="stroke:#000000;stroke-width:0.6;" x="371.512941" xlink:href="#m737b4fb439" y="252"/>
      </g>
     </g>
    </g>
    <g id="xtick_27">
     <g id="line2d_27">
      <g>
       <use style="stroke:#000000;stroke-width:0.6;" x="377.984843" xlink:href="#m737b4fb439" y="252"/>
      </g>
     </g>
    </g>
    <g id="xtick_28">
     <g id="line2d_28">
      <g>
       <use style="stroke:#000000;stroke-width:0.6;" x="383.693464" xlink:href="#m737b4fb439" y="252"/>
      </g>
     </g>
    </g>
    <g id="text_5">
     <!-- Luminosity distance (Mpc) -->
     <defs>
      <path d="M 9.8125 72.90625 
L 19.671875 72.90625 
L 19.671875 8.296875 
L 55.171875 8.296875 
L 55.171875 0 
L 9.8125 0 
z
" id="DejaVuSans-76"/>
      <path d="M 8.5 21.578125 
L 8.5 54.6875 
L 17.484375 54.6875 
L 17.484375 21.921875 
Q 17.484375 14.15625 20.5 10.265625 
Q 23.53125 6.390625 29.59375 6.390625 
Q 36.859375 6.390625 41.078125 11.03125 
Q 45.3125 15.671875 45.3125 23.6875 
L 45.3125 54.6875 
L 54.296875 54.6875 
L 54.296875 0 
L 45.3125 0 
L 45.3125 8.40625 
Q 42.046875 3.421875 37.71875 1 
Q 33.40625 -1.421875 27.6875 -1.421875 
Q 18.265625 -1.421875 13.375 4.4375 
Q 8.5 10.296875 8.5 21.578125 
z
M 31.109375 56 
z
" id="DejaVuSans-117"/>
      <path d="M 52 44.1875 
Q 55.375 50.25 60.0625 53.125 
Q 64.75 56 71.09375 56 
Q 79.640625 56 84.28125 50.015625 
Q 88.921875 44.046875 88.921875 33.015625 
L 88.921875 0 
L 79.890625 0 
L 79.890625 32.71875 
Q 79.890625 40.578125 77.09375 44.375 
Q 74.3125 48.1875 68.609375 48.1875 
Q 61.625 48.1875 57.5625 43.546875 
Q 53.515625 38.921875 53.515625 30.90625 
L 53.515625 0 
L 44.484375 0 
L 44.484375 32.71875 
Q 44.484375 40.625 41.703125 44.40625 
Q 38.921875 48.1875 33.109375 48.1875 
Q 26.21875 48.1875 22.15625 43.53125 
Q 18.109375 38.875 18.109375 30.90625 
L 18.109375 0 
L 9.078125 0 
L 9.078125 54.6875 
L 18.109375 54.6875 
L 18.109375 46.1875 
Q 21.1875 51.21875 25.484375 53.609375 
Q 29.78125 56 35.6875 56 
Q 41.65625 56 45.828125 52.96875 
Q 50 49.953125 52 44.1875 
z
" id="DejaVuSans-109"/>
      <path d="M 9.421875 54.6875 
L 18.40625 54.6875 
L 18.40625 0 
L 9.421875 0 
z
M 9.421875 75.984375 
L 18.40625 75.984375 
L 18.40625 64.59375 
L 9.421875 64.59375 
z
" id="DejaVuSans-105"/>
      <path d="M 54.890625 33.015625 
L 54.890625 0 
L 45.90625 0 
L 45.90625 32.71875 
Q 45.90625 40.484375 42.875 44.328125 
Q 39.84375 48.1875 33.796875 48.1875 
Q 26.515625 48.1875 22.3125 43.546875 
Q 18.109375 38.921875 18.109375 30.90625 
L 18.109375 0 
L 9.078125 0 
L 9.078125 54.6875 
L 18.109375 54.6875 
L 18.109375 46.1875 
Q 21.34375 51.125 25.703125 53.5625 
Q 30.078125 56 35.796875 56 
Q 45.21875 56 50.046875 50.171875 
Q 54.890625 44.34375 54.890625 33.015625 
z
" id="DejaVuSans-110"/>
      <path d="M 30.609375 48.390625 
Q 23.390625 48.390625 19.1875 42.75 
Q 14.984375 37.109375 14.984375 27.296875 
Q 14.984375 17.484375 19.15625 11.84375 
Q 23.34375 6.203125 30.609375 6.203125 
Q 37.796875 6.203125 41.984375 11.859375 
Q 46.1875 17.53125 46.1875 27.296875 
Q 46.1875 37.015625 41.984375 42.703125 
Q 37.796875 48.390625 30.609375 48.390625 
z
M 30.609375 56 
Q 42.328125 56 49.015625 48.375 
Q 55.71875 40.765625 55.71875 27.296875 
Q 55.71875 13.875 49.015625 6.21875 
Q 42.328125 -1.421875 30.609375 -1.421875 
Q 18.84375 -1.421875 12.171875 6.21875 
Q 5.515625 13.875 5.515625 27.296875 
Q 5.515625 40.765625 12.171875 48.375 
Q 18.84375 56 30.609375 56 
z
" id="DejaVuSans-111"/>
      <path d="M 44.28125 53.078125 
L 44.28125 44.578125 
Q 40.484375 46.53125 36.375 47.5 
Q 32.28125 48.484375 27.875 48.484375 
Q 21.1875 48.484375 17.84375 46.4375 
Q 14.5 44.390625 14.5 40.28125 
Q 14.5 37.15625 16.890625 35.375 
Q 19.28125 33.59375 26.515625 31.984375 
L 29.59375 31.296875 
Q 39.15625 29.25 43.1875 25.515625 
Q 47.21875 21.78125 47.21875 15.09375 
Q 47.21875 7.46875 41.1875 3.015625 
Q 35.15625 -1.421875 24.609375 -1.421875 
Q 20.21875 -1.421875 15.453125 -0.5625 
Q 10.6875 0.296875 5.421875 2 
L 5.421875 11.28125 
Q 10.40625 8.6875 15.234375 7.390625 
Q 20.0625 6.109375 24.8125 6.109375 
Q 31.15625 6.109375 34.5625 8.28125 
Q 37.984375 10.453125 37.984375 14.40625 
Q 37.984375 18.0625 35.515625 20.015625 
Q 33.0625 21.96875 24.703125 23.78125 
L 21.578125 24.515625 
Q 13.234375 26.265625 9.515625 29.90625 
Q 5.8125 33.546875 5.8125 39.890625 
Q 5.8125 47.609375 11.28125 51.796875 
Q 16.75 56 26.8125 56 
Q 31.78125 56 36.171875 55.265625 
Q 40.578125 54.546875 44.28125 53.078125 
z
" id="DejaVuSans-115"/>
      <path d="M 18.3125 70.21875 
L 18.3125 54.6875 
L 36.8125 54.6875 
L 36.8125 47.703125 
L 18.3125 47.703125 
L 18.3125 18.015625 
Q 18.3125 11.328125 20.140625 9.421875 
Q 21.96875 7.515625 27.59375 7.515625 
L 36.8125 7.515625 
L 36.8125 0 
L 27.59375 0 
Q 17.1875 0 13.234375 3.875 
Q 9.28125 7.765625 9.28125 18.015625 
L 9.28125 47.703125 
L 2.6875 47.703125 
L 2.6875 54.6875 
L 9.28125 54.6875 
L 9.28125 70.21875 
z
" id="DejaVuSans-116"/>
      <path d="M 32.171875 -5.078125 
Q 28.375 -14.84375 24.75 -17.8125 
Q 21.140625 -20.796875 15.09375 -20.796875 
L 7.90625 -20.796875 
L 7.90625 -13.28125 
L 13.1875 -13.28125 
Q 16.890625 -13.28125 18.9375 -11.515625 
Q 21 -9.765625 23.484375 -3.21875 
L 25.09375 0.875 
L 2.984375 54.6875 
L 12.5 54.6875 
L 29.59375 11.921875 
L 46.6875 54.6875 
L 56.203125 54.6875 
z
" id="DejaVuSans-121"/>
      <path id="DejaVuSans-32"/>
      <path d="M 45.40625 46.390625 
L 45.40625 75.984375 
L 54.390625 75.984375 
L 54.390625 0 
L 45.40625 0 
L 45.40625 8.203125 
Q 42.578125 3.328125 38.25 0.953125 
Q 33.9375 -1.421875 27.875 -1.421875 
Q 17.96875 -1.421875 11.734375 6.484375 
Q 5.515625 14.40625 5.515625 27.296875 
Q 5.515625 40.1875 11.734375 48.09375 
Q 17.96875 56 27.875 56 
Q 33.9375 56 38.25 53.625 
Q 42.578125 51.265625 45.40625 46.390625 
z
M 14.796875 27.296875 
Q 14.796875 17.390625 18.875 11.75 
Q 22.953125 6.109375 30.078125 6.109375 
Q 37.203125 6.109375 41.296875 11.75 
Q 45.40625 17.390625 45.40625 27.296875 
Q 45.40625 37.203125 41.296875 42.84375 
Q 37.203125 48.484375 30.078125 48.484375 
Q 22.953125 48.484375 18.875 42.84375 
Q 14.796875 37.203125 14.796875 27.296875 
z
" id="DejaVuSans-100"/>
      <path d="M 34.28125 27.484375 
Q 23.390625 27.484375 19.1875 25 
Q 14.984375 22.515625 14.984375 16.5 
Q 14.984375 11.71875 18.140625 8.90625 
Q 21.296875 6.109375 26.703125 6.109375 
Q 34.1875 6.109375 38.703125 11.40625 
Q 43.21875 16.703125 43.21875 25.484375 
L 43.21875 27.484375 
z
M 52.203125 31.203125 
L 52.203125 0 
L 43.21875 0 
L 43.21875 8.296875 
Q 40.140625 3.328125 35.546875 0.953125 
Q 30.953125 -1.421875 24.3125 -1.421875 
Q 15.921875 -1.421875 10.953125 3.296875 
Q 6 8.015625 6 15.921875 
Q 6 25.140625 12.171875 29.828125 
Q 18.359375 34.515625 30.609375 34.515625 
L 43.21875 34.515625 
L 43.21875 35.40625 
Q 43.21875 41.609375 39.140625 45 
Q 35.0625 48.390625 27.6875 48.390625 
Q 23 48.390625 18.546875 47.265625 
Q 14.109375 46.140625 10.015625 43.890625 
L 10.015625 52.203125 
Q 14.9375 54.109375 19.578125 55.046875 
Q 24.21875 56 28.609375 56 
Q 40.484375 56 46.34375 49.84375 
Q 52.203125 43.703125 52.203125 31.203125 
z
" id="DejaVuSans-97"/>
      <path d="M 48.78125 52.59375 
L 48.78125 44.1875 
Q 44.96875 46.296875 41.140625 47.34375 
Q 37.3125 48.390625 33.40625 48.390625 
Q 24.65625 48.390625 19.8125 42.84375 
Q 14.984375 37.3125 14.984375 27.296875 
Q 14.984375 17.28125 19.8125 11.734375 
Q 24.65625 6.203125 33.40625 6.203125 
Q 37.3125 6.203125 41.140625 7.25 
Q 44.96875 8.296875 48.78125 10.40625 
L 48.78125 2.09375 
Q 45.015625 0.34375 40.984375 -0.53125 
Q 36.96875 -1.421875 32.421875 -1.421875 
Q 20.0625 -1.421875 12.78125 6.34375 
Q 5.515625 14.109375 5.515625 27.296875 
Q 5.515625 40.671875 12.859375 48.328125 
Q 20.21875 56 33.015625 56 
Q 37.15625 56 41.109375 55.140625 
Q 45.0625 54.296875 48.78125 52.59375 
z
" id="DejaVuSans-99"/>
      <path d="M 56.203125 29.59375 
L 56.203125 25.203125 
L 14.890625 25.203125 
Q 15.484375 15.921875 20.484375 11.0625 
Q 25.484375 6.203125 34.421875 6.203125 
Q 39.59375 6.203125 44.453125 7.46875 
Q 49.3125 8.734375 54.109375 11.28125 
L 54.109375 2.78125 
Q 49.265625 0.734375 44.1875 -0.34375 
Q 39.109375 -1.421875 33.890625 -1.421875 
Q 20.796875 -1.421875 13.15625 6.1875 
Q 5.515625 13.8125 5.515625 26.8125 
Q 5.515625 40.234375 12.765625 48.109375 
Q 20.015625 56 32.328125 56 
Q 43.359375 56 49.78125 48.890625 
Q 56.203125 41.796875 56.203125 29.59375 
z
M 47.21875 32.234375 
Q 47.125 39.59375 43.09375 43.984375 
Q 39.0625 48.390625 32.421875 48.390625 
Q 24.90625 48.390625 20.390625 44.140625 
Q 15.875 39.890625 15.1875 32.171875 
z
" id="DejaVuSans-101"/>
      <path d="M 31 75.875 
Q 24.46875 64.65625 21.28125 53.65625 
Q 18.109375 42.671875 18.109375 31.390625 
Q 18.109375 20.125 21.3125 9.0625 
Q 24.515625 -2 31 -13.1875 
L 23.1875 -13.1875 
Q 15.875 -1.703125 12.234375 9.375 
Q 8.59375 20.453125 8.59375 31.390625 
Q 8.59375 42.28125 12.203125 53.3125 
Q 15.828125 64.359375 23.1875 75.875 
z
" id="DejaVuSans-40"/>
      <path d="M 9.8125 72.90625 
L 24.515625 72.90625 
L 43.109375 23.296875 
L 61.8125 72.90625 
L 76.515625 72.90625 
L 76.515625 0 
L 66.890625 0 
L 66.890625 64.015625 
L 48.09375 14.015625 
L 38.1875 14.015625 
L 19.390625 64.015625 
L 19.390625 0 
L 9.8125 0 
z
" id="DejaVuSans-77"/>
      <path d="M 18.109375 8.203125 
L 18.109375 -20.796875 
L 9.078125 -20.796875 
L 9.078125 54.6875 
L 18.109375 54.6875 
L 18.109375 46.390625 
Q 20.953125 51.265625 25.265625 53.625 
Q 29.59375 56 35.59375 56 
Q 45.5625 56 51.78125 48.09375 
Q 58.015625 40.1875 58.015625 27.296875 
Q 58.015625 14.40625 51.78125 6.484375 
Q 45.5625 -1.421875 35.59375 -1.421875 
Q 29.59375 -1.421875 25.265625 0.953125 
Q 20.953125 3.328125 18.109375 8.203125 
z
M 48.6875 27.296875 
Q 48.6875 37.203125 44.609375 42.84375 
Q 40.53125 48.484375 33.40625 48.484375 
Q 26.265625 48.484375 22.1875 42.84375 
Q 18.109375 37.203125 18.109375 27.296875 
Q 18.109375 17.390625 22.1875 11.75 
Q 26.265625 6.109375 33.40625 6.109375 
Q 40.53125 6.109375 44.609375 11.75 
Q 48.6875 17.390625 48.6875 27.296875 
z
" id="DejaVuSans-112"/>
      <path d="M 8.015625 75.875 
L 15.828125 75.875 
Q 23.140625 64.359375 26.78125 53.3125 
Q 30.421875 42.28125 30.421875 31.390625 
Q 30.421875 20.453125 26.78125 9.375 
Q 23.140625 -1.703125 15.828125 -13.1875 
L 8.015625 -13.1875 
Q 14.5 -2 17.703125 9.0625 
Q 20.90625 20.125 20.90625 31.390625 
Q 20.90625 42.671875 17.703125 53.65625 
Q 14.5 64.65625 8.015625 75.875 
z
" id="DejaVuSans-41"/>
     </defs>
     <g transform="translate(155.541406 280.276563)scale(0.1 -0.1)">
      <use xlink:href="#DejaVuSans-76"/>
      <use x="55.697266" xlink:href="#DejaVuSans-117"/>
      <use x="119.076172" xlink:href="#DejaVuSans-109"/>
      <use x="216.488281" xlink:href="#DejaVuSans-105"/>
      <use x="244.271484" xlink:href="#DejaVuSans-110"/>
      <use x="307.650391" xlink:href="#DejaVuSans-111"/>
      <use x="368.832031" xlink:href="#DejaVuSans-115"/>
      <use x="420.931641" xlink:href="#DejaVuSans-105"/>
      <use x="448.714844" xlink:href="#DejaVuSans-116"/>
      <use x="487.923828" xlink:href="#DejaVuSans-121"/>
      <use x="547.103516" xlink:href="#DejaVuSans-32"/>
      <use x="578.890625" xlink:href="#DejaVuSans-100"/>
      <use x="642.367188" xlink:href="#DejaVuSans-105"/>
      <use x="670.150391" xlink:href="#DejaVuSans-115"/>
      <use x="722.25" xlink:href="#DejaVuSans-116"/>
      <use x="761.458984" xlink:href="#DejaVuSans-97"/>
      <use x="822.738281" xlink:href="#DejaVuSans-110"/>
      <use x="886.117188" xlink:href="#DejaVuSans-99"/>
      <use x="941.097656" xlink:href="#DejaVuSans-101"/>
      <use x="1002.621094" xlink:href="#DejaVuSans-32"/>
      <use x="1034.408203" xlink:href="#DejaVuSans-40"/>
      <use x="1073.421875" xlink:href="#DejaVuSans-77"/>
      <use x="1159.701172" xlink:href="#DejaVuSans-112"/>
      <use x="1223.177734" xlink:href="#DejaVuSans-99"/>
      <use x="1278.158203" xlink:href="#DejaVuSans-41"/>
     </g>
    </g>
   </g>
   <g id="matplotlib.axis_2">
    <g id="ytick_1">
     <g id="line2d_29">
      <defs>
       <path d="M 0 0 
L -3.5 0 
" id="mb2a1cd1196" style="stroke:#000000;stroke-width:0.8;"/>
      </defs>
      <g>
       <use style="stroke:#000000;stroke-width:0.8;" x="54" xlink:href="#mb2a1cd1196" y="252"/>
      </g>
     </g>
     <g id="text_6">
      <!-- 0.00 -->
      <defs>
       <path d="M 10.6875 12.40625 
L 21 12.40625 
L 21 0 
L 10.6875 0 
z
" id="DejaVuSans-46"/>
      </defs>
      <g transform="translate(24.734375 255.799219)scale(0.1 -0.1)">
       <use xlink:href="#DejaVuSans-48"/>
       <use x="63.623047" xlink:href="#DejaVuSans-46"/>
       <use x="95.410156" xlink:href="#DejaVuSans-48"/>
       <use x="159.033203" xlink:href="#DejaVuSans-48"/>
      </g>
     </g>
    </g>
    <g id="ytick_2">
     <g id="line2d_30">
      <g>
       <use style="stroke:#000000;stroke-width:0.8;" x="54" xlink:href="#mb2a1cd1196" y="197.64"/>
      </g>
     </g>
     <g id="text_7">
      <!-- 0.25 -->
      <defs>
       <path d="M 19.1875 8.296875 
L 53.609375 8.296875 
L 53.609375 0 
L 7.328125 0 
L 7.328125 8.296875 
Q 12.9375 14.109375 22.625 23.890625 
Q 32.328125 33.6875 34.8125 36.53125 
Q 39.546875 41.84375 41.421875 45.53125 
Q 43.3125 49.21875 43.3125 52.78125 
Q 43.3125 58.59375 39.234375 62.25 
Q 35.15625 65.921875 28.609375 65.921875 
Q 23.96875 65.921875 18.8125 64.3125 
Q 13.671875 62.703125 7.8125 59.421875 
L 7.8125 69.390625 
Q 13.765625 71.78125 18.9375 73 
Q 24.125 74.21875 28.421875 74.21875 
Q 39.75 74.21875 46.484375 68.546875 
Q 53.21875 62.890625 53.21875 53.421875 
Q 53.21875 48.921875 51.53125 44.890625 
Q 49.859375 40.875 45.40625 35.40625 
Q 44.1875 33.984375 37.640625 27.21875 
Q 31.109375 20.453125 19.1875 8.296875 
z
" id="DejaVuSans-50"/>
       <path d="M 10.796875 72.90625 
L 49.515625 72.90625 
L 49.515625 64.59375 
L 19.828125 64.59375 
L 19.828125 46.734375 
Q 21.96875 47.46875 24.109375 47.828125 
Q 26.265625 48.1875 28.421875 48.1875 
Q 40.625 48.1875 47.75 41.5 
Q 54.890625 34.8125 54.890625 23.390625 
Q 54.890625 11.625 47.5625 5.09375 
Q 40.234375 -1.421875 26.90625 -1.421875 
Q 22.3125 -1.421875 17.546875 -0.640625 
Q 12.796875 0.140625 7.71875 1.703125 
L 7.71875 11.625 
Q 12.109375 9.234375 16.796875 8.0625 
Q 21.484375 6.890625 26.703125 6.890625 
Q 35.15625 6.890625 40.078125 11.328125 
Q 45.015625 15.765625 45.015625 23.390625 
Q 45.015625 31 40.078125 35.4375 
Q 35.15625 39.890625 26.703125 39.890625 
Q 22.75 39.890625 18.8125 39.015625 
Q 14.890625 38.140625 10.796875 36.28125 
z
" id="DejaVuSans-53"/>
      </defs>
      <g transform="translate(24.734375 201.439219)scale(0.1 -0.1)">
       <use xlink:href="#DejaVuSans-48"/>
       <use x="63.623047" xlink:href="#DejaVuSans-46"/>
       <use x="95.410156" xlink:href="#DejaVuSans-50"/>
       <use x="159.033203" xlink:href="#DejaVuSans-53"/>
      </g>
     </g>
    </g>
    <g id="ytick_3">
     <g id="line2d_31">
      <g>
       <use style="stroke:#000000;stroke-width:0.8;" x="54" xlink:href="#mb2a1cd1196" y="143.28"/>
      </g>
     </g>
     <g id="text_8">
      <!-- 0.50 -->
      <g transform="translate(24.734375 147.079219)scale(0.1 -0.1)">
       <use xlink:href="#DejaVuSans-48"/>
       <use x="63.623047" xlink:href="#DejaVuSans-46"/>
       <use x="95.410156" xlink:href="#DejaVuSans-53"/>
       <use x="159.033203" xlink:href="#DejaVuSans-48"/>
      </g>
     </g>
    </g>
    <g id="ytick_4">
     <g id="line2d_32">
      <g>
       <use style="stroke:#000000;stroke-width:0.8;" x="54" xlink:href="#mb2a1cd1196" y="88.92"/>
      </g>
     </g>
     <g id="text_9">
      <!-- 0.75 -->
      <defs>
       <path d="M 8.203125 72.90625 
L 55.078125 72.90625 
L 55.078125 68.703125 
L 28.609375 0 
L 18.3125 0 
L 43.21875 64.59375 
L 8.203125 64.59375 
z
" id="DejaVuSans-55"/>
      </defs>
      <g transform="translate(24.734375 92.719219)scale(0.1 -0.1)">
       <use xlink:href="#DejaVuSans-48"/>
       <use x="63.623047" xlink:href="#DejaVuSans-46"/>
       <use x="95.410156" xlink:href="#DejaVuSans-55"/>
       <use x="159.033203" xlink:href="#DejaVuSans-53"/>
      </g>
     </g>
    </g>
    <g id="ytick_5">
     <g id="line2d_33">
      <g>
       <use style="stroke:#000000;stroke-width:0.8;" x="54" xlink:href="#mb2a1cd1196" y="34.56"/>
      </g>
     </g>
     <g id="text_10">
      <!-- 1.00 -->
      <g transform="translate(24.734375 38.359219)scale(0.1 -0.1)">
       <use xlink:href="#DejaVuSans-49"/>
       <use x="63.623047" xlink:href="#DejaVuSans-46"/>
       <use x="95.410156" xlink:href="#DejaVuSans-48"/>
       <use x="159.033203" xlink:href="#DejaVuSans-48"/>
      </g>
     </g>
    </g>
    <g id="text_11">
     <!-- Cumulative fraction of events -->
     <defs>
      <path d="M 64.40625 67.28125 
L 64.40625 56.890625 
Q 59.421875 61.53125 53.78125 63.8125 
Q 48.140625 66.109375 41.796875 66.109375 
Q 29.296875 66.109375 22.65625 58.46875 
Q 16.015625 50.828125 16.015625 36.375 
Q 16.015625 21.96875 22.65625 14.328125 
Q 29.296875 6.6875 41.796875 6.6875 
Q 48.140625 6.6875 53.78125 8.984375 
Q 59.421875 11.28125 64.40625 15.921875 
L 64.40625 5.609375 
Q 59.234375 2.09375 53.4375 0.328125 
Q 47.65625 -1.421875 41.21875 -1.421875 
Q 24.65625 -1.421875 15.125 8.703125 
Q 5.609375 18.84375 5.609375 36.375 
Q 5.609375 53.953125 15.125 64.078125 
Q 24.65625 74.21875 41.21875 74.21875 
Q 47.75 74.21875 53.53125 72.484375 
Q 59.328125 70.75 64.40625 67.28125 
z
" id="DejaVuSans-67"/>
      <path d="M 9.421875 75.984375 
L 18.40625 75.984375 
L 18.40625 0 
L 9.421875 0 
z
" id="DejaVuSans-108"/>
      <path d="M 2.984375 54.6875 
L 12.5 54.6875 
L 29.59375 8.796875 
L 46.6875 54.6875 
L 56.203125 54.6875 
L 35.6875 0 
L 23.484375 0 
z
" id="DejaVuSans-118"/>
      <path d="M 37.109375 75.984375 
L 37.109375 68.5 
L 28.515625 68.5 
Q 23.6875 68.5 21.796875 66.546875 
Q 19.921875 64.59375 19.921875 59.515625 
L 19.921875 54.6875 
L 34.71875 54.6875 
L 34.71875 47.703125 
L 19.921875 47.703125 
L 19.921875 0 
L 10.890625 0 
L 10.890625 47.703125 
L 2.296875 47.703125 
L 2.296875 54.6875 
L 10.890625 54.6875 
L 10.890625 58.5 
Q 10.890625 67.625 15.140625 71.796875 
Q 19.390625 75.984375 28.609375 75.984375 
z
" id="DejaVuSans-102"/>
      <path d="M 41.109375 46.296875 
Q 39.59375 47.171875 37.8125 47.578125 
Q 36.03125 48 33.890625 48 
Q 26.265625 48 22.1875 43.046875 
Q 18.109375 38.09375 18.109375 28.8125 
L 18.109375 0 
L 9.078125 0 
L 9.078125 54.6875 
L 18.109375 54.6875 
L 18.109375 46.1875 
Q 20.953125 51.171875 25.484375 53.578125 
Q 30.03125 56 36.53125 56 
Q 37.453125 56 38.578125 55.875 
Q 39.703125 55.765625 41.0625 55.515625 
z
" id="DejaVuSans-114"/>
     </defs>
     <g transform="translate(18.654687 217.456563)rotate(-90)scale(0.1 -0.1)">
      <use xlink:href="#DejaVuSans-67"/>
      <use x="69.824219" xlink:href="#DejaVuSans-117"/>
      <use x="133.203125" xlink:href="#DejaVuSans-109"/>
      <use x="230.615234" xlink:href="#DejaVuSans-117"/>
      <use x="293.994141" xlink:href="#DejaVuSans-108"/>
      <use x="321.777344" xlink:href="#DejaVuSans-97"/>
      <use x="383.056641" xlink:href="#DejaVuSans-116"/>
      <use x="422.265625" xlink:href="#DejaVuSans-105"/>
      <use x="450.048828" xlink:href="#DejaVuSans-118"/>
      <use x="509.228516" xlink:href="#DejaVuSans-101"/>
      <use x="570.751953" xlink:href="#DejaVuSans-32"/>
      <use x="602.539062" xlink:href="#DejaVuSans-102"/>
      <use x="637.744141" xlink:href="#DejaVuSans-114"/>
      <use x="678.857422" xlink:href="#DejaVuSans-97"/>
      <use x="740.136719" xlink:href="#DejaVuSans-99"/>
      <use x="795.117188" xlink:href="#DejaVuSans-116"/>
      <use x="834.326172" xlink:href="#DejaVuSans-105"/>
      <use x="862.109375" xlink:href="#DejaVuSans-111"/>
      <use x="923.291016" xlink:href="#DejaVuSans-110"/>
      <use x="986.669922" xlink:href="#DejaVuSans-32"/>
      <use x="1018.457031" xlink:href="#DejaVuSans-111"/>
      <use x="1079.638672" xlink:href="#DejaVuSans-102"/>
      <use x="1114.84375" xlink:href="#DejaVuSans-32"/>
      <use x="1146.630859" xlink:href="#DejaVuSans-101"/>
      <use x="1208.154297" xlink:href="#DejaVuSans-118"/>
      <use x="1267.333984" xlink:href="#DejaVuSans-101"/>
      <use x="1328.857422" xlink:href="#DejaVuSans-110"/>
      <use x="1392.236328" xlink:href="#DejaVuSans-116"/>
      <use x="1431.445312" xlink:href="#DejaVuSans-115"/>
     </g>
    </g>
   </g>
   <g id="line2d_34">
    <path clip-path="url(#pbf9fd9c6a2)" d="M 54 251.999492 
L 57.381818 251.997446 
L 60.763636 251.989956 
L 64.145455 251.968717 
L 67.527273 251.921519 
L 70.909091 251.837788 
L 74.290909 251.715418 
L 77.672727 251.560481 
L 81.054545 251.378607 
L 84.436364 251.167288 
L 87.818182 250.913994 
L 91.2 250.595045 
L 94.581818 250.176051 
L 97.963636 249.624501 
L 101.345455 248.930761 
L 104.727273 248.109309 
L 108.109091 247.162576 
L 111.490909 246.038783 
L 114.872727 244.638052 
L 118.254545 242.865325 
L 121.636364 240.661626 
L 125.018182 237.980071 
L 128.4 234.765395 
L 131.781818 230.988795 
L 135.163636 226.687656 
L 138.545455 221.927013 
L 141.927273 216.696085 
L 145.309091 210.859445 
L 148.690909 204.236686 
L 152.072727 196.713819 
L 155.454545 188.253925 
L 158.836364 178.843253 
L 162.218182 168.50339 
L 165.6 157.376064 
L 168.981818 145.741091 
L 172.363636 133.886293 
L 175.745455 121.961374 
L 179.127273 110.004629 
L 182.509091 98.108066 
L 185.890909 86.506951 
L 189.272727 75.520371 
L 192.654545 65.477895 
L 196.036364 56.703765 
L 199.418182 49.475916 
L 202.8 43.929423 
L 206.181818 39.994244 
L 209.563636 37.429112 
L 212.945455 35.911088 
L 216.327273 35.113239 
L 219.709091 34.751762 
L 223.090909 34.61489 
L 226.472727 34.572712 
L 229.854545 34.562344 
L 233.236364 34.56034 
L 236.618182 34.560038 
L 240 34.560003 
L 243.381818 34.56 
L 246.763636 34.56 
L 250.145455 34.56 
L 253.527273 34.56 
L 256.909091 34.56 
L 260.290909 34.56 
L 263.672727 34.56 
L 267.054545 34.56 
L 270.436364 34.56 
L 273.818182 34.56 
L 277.2 34.56 
L 280.581818 34.56 
L 283.963636 34.56 
L 287.345455 34.56 
L 290.727273 34.56 
L 294.109091 34.56 
L 297.490909 34.56 
L 300.872727 34.56 
L 304.254545 34.56 
L 307.636364 34.56 
L 311.018182 34.56 
L 314.4 34.56 
L 317.781818 34.56 
L 321.163636 34.56 
L 324.545455 34.56 
L 327.927273 34.56 
L 331.309091 34.56 
L 334.690909 34.56 
L 338.072727 34.56 
L 341.454545 34.56 
L 344.836364 34.56 
L 348.218182 34.56 
L 351.6 34.56 
L 354.981818 34.56 
L 358.363636 34.56 
L 361.745455 34.56 
L 365.127273 34.56 
L 368.509091 34.56 
L 371.890909 34.56 
L 375.272727 34.56 
L 378.654545 34.56 
L 382.036364 34.56 
L 385.418182 34.56 
L 388.8 34.56 
" style="fill:none;stroke:#0173b2;stroke-linecap:square;stroke-width:1.5;"/>
   </g>
   <g id="line2d_35">
    <path clip-path="url(#pbf9fd9c6a2)" d="M 54 252 
L 57.381818 252 
L 60.763636 252 
L 64.145455 252 
L 67.527273 252 
L 70.909091 251.999996 
L 74.290909 251.999971 
L 77.672727 251.999813 
L 81.054545 251.999046 
L 84.436364 251.996103 
L 87.818182 251.987108 
L 91.2 251.964908 
L 94.581818 251.919805 
L 97.963636 251.842352 
L 101.345455 251.726409 
L 104.727273 251.570343 
L 108.109091 251.375592 
L 111.490909 251.142935 
L 114.872727 250.869423 
L 118.254545 250.551091 
L 121.636364 250.189888 
L 125.018182 249.792379 
L 128.4 249.351771 
L 131.781818 248.825763 
L 135.163636 248.135046 
L 138.545455 247.190097 
L 141.927273 245.920795 
L 145.309091 244.278133 
L 148.690909 242.216407 
L 152.072727 239.69261 
L 155.454545 236.689324 
L 158.836364 233.225718 
L 162.218182 229.332037 
L 165.6 225.007419 
L 168.981818 220.200425 
L 172.363636 214.827019 
L 175.745455 208.809802 
L 179.127273 202.118421 
L 182.509091 194.787165 
L 185.890909 186.877386 
L 189.272727 178.398879 
L 192.654545 169.275048 
L 196.036364 159.410073 
L 199.418182 148.806351 
L 202.8 137.627234 
L 206.181818 126.150251 
L 209.563636 114.652119 
L 212.945455 103.333306 
L 216.327273 92.351063 
L 219.709091 81.9084 
L 223.090909 72.287572 
L 226.472727 63.786417 
L 229.854545 56.611747 
L 233.236364 50.806744 
L 236.618182 46.253326 
L 240 42.743264 
L 243.381818 40.070553 
L 246.763636 38.084403 
L 250.145455 36.680783 
L 253.527273 35.763979 
L 256.909091 35.221081 
L 260.290909 34.927124 
L 263.672727 34.771604 
L 267.054545 34.681978 
L 270.436364 34.625048 
L 273.818182 34.589985 
L 277.2 34.571461 
L 280.581818 34.563551 
L 283.963636 34.560881 
L 287.345455 34.560174 
L 290.727273 34.560027 
L 294.109091 34.560003 
L 297.490909 34.56 
L 300.872727 34.56 
L 304.254545 34.56 
L 307.636364 34.56 
L 311.018182 34.56 
L 314.4 34.56 
L 317.781818 34.56 
L 321.163636 34.56 
L 324.545455 34.56 
L 327.927273 34.56 
L 331.309091 34.56 
L 334.690909 34.56 
L 338.072727 34.56 
L 341.454545 34.56 
L 344.836364 34.56 
L 348.218182 34.56 
L 351.6 34.56 
L 354.981818 34.56 
L 358.363636 34.56 
L 361.745455 34.56 
L 365.127273 34.56 
L 368.509091 34.56 
L 371.890909 34.56 
L 375.272727 34.56 
L 378.654545 34.56 
L 382.036364 34.56 
L 385.418182 34.56 
L 388.8 34.56 
" style="fill:none;stroke:#0173b2;stroke-dasharray:5.55,2.4;stroke-dashoffset:0;stroke-width:1.5;"/>
   </g>
   <g id="line2d_36">
    <path clip-path="url(#pbf9fd9c6a2)" d="M 54 252 
L 57.381818 252 
L 60.763636 252 
L 64.145455 252 
L 67.527273 252 
L 70.909091 252 
L 74.290909 252 
L 77.672727 252 
L 81.054545 252 
L 84.436364 252 
L 87.818182 252 
L 91.2 252 
L 94.581818 252 
L 97.963636 252 
L 101.345455 251.999999 
L 104.727273 251.999994 
L 108.109091 251.999966 
L 111.490909 251.999846 
L 114.872727 251.999397 
L 118.254545 251.997957 
L 121.636364 251.993997 
L 125.018182 251.984619 
L 128.4 251.965433 
L 131.781818 251.931347 
L 135.163636 251.878449 
L 138.545455 251.806181 
L 141.927273 251.718321 
L 145.309091 251.621545 
L 148.690909 251.521544 
L 152.072727 251.418087 
L 155.454545 251.301466 
L 158.836364 251.152888 
L 162.218182 250.949767 
L 165.6 250.673541 
L 168.981818 250.314826 
L 172.363636 249.87162 
L 175.745455 249.341246 
L 179.127273 248.711537 
L 182.509091 247.956401 
L 185.890909 247.036091 
L 189.272727 245.899413 
L 192.654545 244.487413 
L 196.036364 242.741561 
L 199.418182 240.617527 
L 202.8 238.098662 
L 206.181818 235.197758 
L 209.563636 231.938969 
L 212.945455 228.325799 
L 216.327273 224.317701 
L 219.709091 219.839079 
L 223.090909 214.82088 
L 226.472727 209.243394 
L 229.854545 203.142829 
L 233.236364 196.575987 
L 236.618182 189.577159 
L 240 182.146375 
L 243.381818 174.273204 
L 246.763636 165.9662 
L 250.145455 157.261759 
L 253.527273 148.217028 
L 256.909091 138.909871 
L 260.290909 129.455228 
L 263.672727 120.021544 
L 267.054545 110.824425 
L 270.436364 102.092663 
L 273.818182 94.022489 
L 277.2 86.740542 
L 280.581818 80.287134 
L 283.963636 74.62108 
L 287.345455 69.641218 
L 290.727273 65.217813 
L 294.109091 61.227153 
L 297.490909 57.581419 
L 300.872727 54.243257 
L 304.254545 51.216638 
L 307.636364 48.517582 
L 311.018182 46.143644 
L 314.4 44.06411 
L 317.781818 42.236273 
L 321.163636 40.630345 
L 324.545455 39.239869 
L 327.927273 38.07147 
L 331.309091 37.127559 
L 334.690909 36.397134 
L 338.072727 35.856788 
L 341.454545 35.475073 
L 344.836364 35.215975 
L 348.218182 35.042635 
L 351.6 34.922477 
L 354.981818 34.831877 
L 358.363636 34.757768 
L 361.745455 34.695674 
L 365.127273 34.645778 
L 368.509091 34.609073 
L 371.890909 34.585039 
L 375.272727 34.571265 
L 378.654545 34.56443 
L 382.036364 34.561512 
L 385.418182 34.560446 
L 388.8 34.560113 
" style="fill:none;stroke:#0173b2;stroke-dasharray:1.5,2.475;stroke-dashoffset:0;stroke-width:1.5;"/>
   </g>
   <g id="line2d_37">
    <path clip-path="url(#pbf9fd9c6a2)" d="M 54 251.999233 
L 57.381818 251.99632 
L 60.763636 251.985885 
L 64.145455 251.956259 
L 67.527273 251.888966 
L 70.909091 251.765055 
L 74.290909 251.576551 
L 77.672727 251.333061 
L 81.054545 251.055375 
L 84.436364 250.759743 
L 87.818182 250.442643 
L 91.2 250.072733 
L 94.581818 249.596347 
L 97.963636 248.962402 
L 101.345455 248.155738 
L 104.727273 247.203226 
L 108.109091 246.124528 
L 111.490909 244.86068 
L 114.872727 243.266693 
L 118.254545 241.200213 
L 121.636364 238.616925 
L 125.018182 235.573308 
L 128.4 232.157991 
L 131.781818 228.429298 
L 135.163636 224.377154 
L 138.545455 219.905858 
L 141.927273 214.865691 
L 145.309091 209.128647 
L 148.690909 202.638093 
L 152.072727 195.383152 
L 155.454545 187.340578 
L 158.836364 178.468099 
L 162.218182 168.763333 
L 165.6 158.30043 
L 168.981818 147.173149 
L 172.363636 135.420062 
L 175.745455 123.073115 
L 179.127273 110.320218 
L 182.509091 97.596728 
L 185.890909 85.471916 
L 189.272727 74.425253 
L 192.654545 64.725525 
L 196.036364 56.484883 
L 199.418182 49.753581 
L 202.8 44.525191 
L 206.181818 40.692255 
L 209.563636 38.052815 
L 212.945455 36.365143 
L 216.327273 35.386645 
L 219.709091 34.887665 
L 223.090909 34.670147 
L 226.472727 34.590871 
L 229.854545 34.567112 
L 233.236364 34.56133 
L 236.618182 34.5602 
L 240 34.560024 
L 243.381818 34.560002 
L 246.763636 34.56 
L 250.145455 34.56 
L 253.527273 34.56 
L 256.909091 34.56 
L 260.290909 34.56 
L 263.672727 34.56 
L 267.054545 34.56 
L 270.436364 34.56 
L 273.818182 34.56 
L 277.2 34.56 
L 280.581818 34.56 
L 283.963636 34.56 
L 287.345455 34.56 
L 290.727273 34.56 
L 294.109091 34.56 
L 297.490909 34.56 
L 300.872727 34.56 
L 304.254545 34.56 
L 307.636364 34.56 
L 311.018182 34.56 
L 314.4 34.56 
L 317.781818 34.56 
L 321.163636 34.56 
L 324.545455 34.56 
L 327.927273 34.56 
L 331.309091 34.56 
L 334.690909 34.56 
L 338.072727 34.56 
L 341.454545 34.56 
L 344.836364 34.56 
L 348.218182 34.56 
L 351.6 34.56 
L 354.981818 34.56 
L 358.363636 34.56 
L 361.745455 34.56 
L 365.127273 34.56 
L 368.509091 34.56 
L 371.890909 34.56 
L 375.272727 34.56 
L 378.654545 34.56 
L 382.036364 34.56 
L 385.418182 34.56 
L 388.8 34.56 
" style="fill:none;stroke:#de8f05;stroke-linecap:square;stroke-width:1.5;"/>
   </g>
   <g id="line2d_38">
    <path clip-path="url(#pbf9fd9c6a2)" d="M 54 252 
L 57.381818 252 
L 60.763636 252 
L 64.145455 252 
L 67.527273 251.999999 
L 70.909091 251.999991 
L 74.290909 251.999938 
L 77.672727 251.999665 
L 81.054545 251.998511 
L 84.436364 251.994518 
L 87.818182 251.983088 
L 91.2 251.955575 
L 94.581818 251.898864 
L 97.963636 251.797053 
L 101.345455 251.635952 
L 104.727273 251.409565 
L 108.109091 251.124066 
L 111.490909 250.793221 
L 114.872727 250.426772 
L 118.254545 250.023336 
L 121.636364 249.575092 
L 125.018182 249.075445 
L 128.4 248.515882 
L 131.781818 247.870946 
L 135.163636 247.082875 
L 138.545455 246.059056 
L 141.927273 244.688395 
L 145.309091 242.87121 
L 148.690909 240.549711 
L 152.072727 237.726188 
L 155.454545 234.454667 
L 158.836364 230.796205 
L 162.218182 226.757776 
L 165.6 222.265499 
L 168.981818 217.202856 
L 172.363636 211.485312 
L 175.745455 205.114941 
L 179.127273 198.183122 
L 182.509091 190.819533 
L 185.890909 183.104511 
L 189.272727 174.994216 
L 192.654545 166.328595 
L 196.036364 156.939391 
L 199.418182 146.780677 
L 202.8 135.983714 
L 206.181818 124.81822 
L 209.563636 113.616141 
L 212.945455 102.707724 
L 216.327273 92.379374 
L 219.709091 82.847792 
L 223.090909 74.250747 
L 226.472727 66.654904 
L 229.854545 60.070261 
L 233.236364 54.458425 
L 236.618182 49.739738 
L 240 45.814872 
L 243.381818 42.596862 
L 246.763636 40.028111 
L 250.145455 38.067378 
L 253.527273 36.660873 
L 256.909091 35.724743 
L 260.290909 35.1517 
L 263.672727 34.831874 
L 267.054545 34.671172 
L 270.436364 34.599736 
L 273.818182 34.572199 
L 277.2 34.563168 
L 280.581818 34.560687 
L 283.963636 34.560123 
L 287.345455 34.560018 
L 290.727273 34.560002 
L 294.109091 34.56 
L 297.490909 34.56 
L 300.872727 34.56 
L 304.254545 34.56 
L 307.636364 34.56 
L 311.018182 34.56 
L 314.4 34.56 
L 317.781818 34.56 
L 321.163636 34.56 
L 324.545455 34.56 
L 327.927273 34.56 
L 331.309091 34.56 
L 334.690909 34.56 
L 338.072727 34.56 
L 341.454545 34.56 
L 344.836364 34.56 
L 348.218182 34.56 
L 351.6 34.56 
L 354.981818 34.56 
L 358.363636 34.56 
L 361.745455 34.56 
L 365.127273 34.56 
L 368.509091 34.56 
L 371.890909 34.56 
L 375.272727 34.56 
L 378.654545 34.56 
L 382.036364 34.56 
L 385.418182 34.56 
L 388.8 34.56 
" style="fill:none;stroke:#de8f05;stroke-dasharray:5.55,2.4;stroke-dashoffset:0;stroke-width:1.5;"/>
   </g>
   <g id="line2d_39">
    <path clip-path="url(#pbf9fd9c6a2)" d="M 54 252 
L 57.381818 252 
L 60.763636 252 
L 64.145455 252 
L 67.527273 252 
L 70.909091 252 
L 74.290909 252 
L 77.672727 252 
L 81.054545 252 
L 84.436364 252 
L 87.818182 252 
L 91.2 252 
L 94.581818 252 
L 97.963636 252 
L 101.345455 251.999999 
L 104.727273 251.999992 
L 108.109091 251.999959 
L 111.490909 251.999814 
L 114.872727 251.999279 
L 118.254545 251.997563 
L 121.636364 251.992814 
L 125.018182 251.981421 
L 128.4 251.957679 
L 131.781818 251.914569 
L 135.163636 251.846151 
L 138.545455 251.750833 
L 141.927273 251.633431 
L 145.309091 251.503647 
L 148.690909 251.370366 
L 152.072727 251.234013 
L 155.454545 251.081306 
L 158.836364 250.886384 
L 162.218182 250.619147 
L 165.6 250.256902 
L 168.981818 249.791969 
L 172.363636 249.229327 
L 175.745455 248.574814 
L 179.127273 247.821417 
L 182.509091 246.942424 
L 185.890909 245.894266 
L 189.272727 244.624443 
L 192.654545 243.078449 
L 196.036364 241.205037 
L 199.418182 238.964689 
L 202.8 236.343207 
L 206.181818 233.361336 
L 209.563636 230.064312 
L 212.945455 226.486344 
L 216.327273 222.610085 
L 219.709091 218.354928 
L 223.090909 213.609589 
L 226.472727 208.286945 
L 229.854545 202.359691 
L 233.236364 195.85408 
L 236.618182 188.816036 
L 240 181.283312 
L 243.381818 173.285162 
L 246.763636 164.863708 
L 250.145455 156.094843 
L 253.527273 147.091719 
L 256.909091 137.991356 
L 260.290909 128.937038 
L 263.672727 120.066735 
L 267.054545 111.507106 
L 270.436364 103.367487 
L 273.818182 95.732825 
L 277.2 88.659682 
L 280.581818 82.177139 
L 283.963636 76.288689 
L 287.345455 70.971098 
L 290.727273 66.173091 
L 294.109091 61.82254 
L 297.490909 57.846797 
L 300.872727 54.19877 
L 304.254545 50.872412 
L 307.636364 47.895441 
L 311.018182 45.302439 
L 314.4 43.105825 
L 317.781818 41.283119 
L 321.163636 39.785692 
L 324.545455 38.558586 
L 327.927273 37.556257 
L 331.309091 36.746542 
L 334.690909 36.105863 
L 338.072727 35.61308 
L 341.454545 35.246662 
L 344.836364 34.98491 
L 348.218182 34.806944 
L 351.6 34.693239 
L 354.981818 34.625955 
L 358.363636 34.589614 
L 361.745455 34.571935 
L 365.127273 34.564277 
L 368.509091 34.561352 
L 371.890909 34.560374 
L 375.272727 34.56009 
L 378.654545 34.560019 
L 382.036364 34.560003 
L 385.418182 34.560001 
L 388.8 34.56 
" style="fill:none;stroke:#de8f05;stroke-dasharray:1.5,2.475;stroke-dashoffset:0;stroke-width:1.5;"/>
   </g>
   <g id="line2d_40">
    <path clip-path="url(#pbf9fd9c6a2)" d="M 54 252 
L 57.381818 252 
L 60.763636 252 
L 64.145455 252 
L 67.527273 252 
L 70.909091 251.999998 
L 74.290909 251.999977 
L 77.672727 251.999824 
L 81.054545 251.998936 
L 84.436364 251.994954 
L 87.818182 251.981024 
L 91.2 251.942692 
L 94.581818 251.858827 
L 97.963636 251.710662 
L 101.345455 251.494519 
L 104.727273 251.225705 
L 108.109091 250.927595 
L 111.490909 250.613731 
L 114.872727 250.27287 
L 118.254545 249.862412 
L 121.636364 249.319018 
L 125.018182 248.592651 
L 128.4 247.682734 
L 131.781818 246.629338 
L 135.163636 245.441169 
L 138.545455 244.02155 
L 141.927273 242.186846 
L 145.309091 239.779705 
L 148.690909 236.760431 
L 152.072727 233.191551 
L 155.454545 229.165292 
L 158.836364 224.749407 
L 162.218182 219.949596 
L 165.6 214.676893 
L 168.981818 208.754393 
L 172.363636 201.98355 
L 175.745455 194.226764 
L 179.127273 185.43722 
L 182.509091 175.624316 
L 185.890909 164.832938 
L 189.272727 153.20189 
L 192.654545 141.01885 
L 196.036364 128.637425 
L 199.418182 116.31413 
L 202.8 104.166518 
L 206.181818 92.301866 
L 209.563636 80.960371 
L 212.945455 70.518169 
L 216.327273 61.346487 
L 219.709091 53.66648 
L 223.090909 47.52828 
L 226.472727 42.873587 
L 229.854545 39.563075 
L 233.236364 37.370132 
L 236.618182 36.016714 
L 240 35.241915 
L 243.381818 34.839653 
L 246.763636 34.657317 
L 250.145455 34.587954 
L 253.527273 34.566488 
L 256.909091 34.561198 
L 260.290909 34.560174 
L 263.672727 34.56002 
L 267.054545 34.560002 
L 270.436364 34.56 
L 273.818182 34.56 
L 277.2 34.56 
L 280.581818 34.56 
L 283.963636 34.56 
L 287.345455 34.56 
L 290.727273 34.56 
L 294.109091 34.56 
L 297.490909 34.56 
L 300.872727 34.56 
L 304.254545 34.56 
L 307.636364 34.56 
L 311.018182 34.56 
L 314.4 34.56 
L 317.781818 34.56 
L 321.163636 34.56 
L 324.545455 34.56 
L 327.927273 34.56 
L 331.309091 34.56 
L 334.690909 34.56 
L 338.072727 34.56 
L 341.454545 34.56 
L 344.836364 34.56 
L 348.218182 34.56 
L 351.6 34.56 
L 354.981818 34.56 
L 358.363636 34.56 
L 361.745455 34.56 
L 365.127273 34.56 
L 368.509091 34.56 
L 371.890909 34.56 
L 375.272727 34.56 
L 378.654545 34.56 
L 382.036364 34.56 
L 385.418182 34.56 
L 388.8 34.56 
" style="fill:none;stroke:#029e73;stroke-linecap:square;stroke-width:1.5;"/>
   </g>
   <g id="line2d_41">
    <path clip-path="url(#pbf9fd9c6a2)" d="M 54 252 
L 57.381818 252 
L 60.763636 252 
L 64.145455 252 
L 67.527273 252 
L 70.909091 252 
L 74.290909 252 
L 77.672727 252 
L 81.054545 252 
L 84.436364 252 
L 87.818182 252 
L 91.2 251.999999 
L 94.581818 251.999992 
L 97.963636 251.999942 
L 101.345455 251.999665 
L 104.727273 251.998449 
L 108.109091 251.9942 
L 111.490909 251.98223 
L 114.872727 251.954481 
L 118.254545 251.899888 
L 121.636364 251.805381 
L 125.018182 251.657629 
L 128.4 251.448299 
L 131.781818 251.182206 
L 135.163636 250.877916 
L 138.545455 250.553393 
L 141.927273 250.209001 
L 145.309091 249.826908 
L 148.690909 249.385394 
L 152.072727 248.867988 
L 155.454545 248.254736 
L 158.836364 247.503086 
L 162.218182 246.537089 
L 165.6 245.257172 
L 168.981818 243.561947 
L 172.363636 241.364511 
L 175.745455 238.606412 
L 179.127273 235.282411 
L 182.509091 231.454777 
L 185.890909 227.216101 
L 189.272727 222.610445 
L 192.654545 217.580627 
L 196.036364 211.987758 
L 199.418182 205.682392 
L 202.8 198.580894 
L 206.181818 190.705561 
L 209.563636 182.151472 
L 212.945455 172.993802 
L 216.327273 163.225522 
L 219.709091 152.797923 
L 223.090909 141.72936 
L 226.472727 130.184203 
L 229.854545 118.458863 
L 233.236364 106.889588 
L 236.618182 95.755733 
L 240 85.257644 
L 243.381818 75.579666 
L 246.763636 66.946866 
L 250.145455 59.579762 
L 253.527273 53.583045 
L 256.909091 48.890721 
L 260.290909 45.310069 
L 263.672727 42.602474 
L 267.054545 40.542225 
L 270.436364 38.944524 
L 273.818182 37.676793 
L 277.2 36.663021 
L 280.581818 35.875235 
L 283.963636 35.305813 
L 287.345455 34.936345 
L 290.727273 34.726231 
L 294.109091 34.623261 
L 297.490909 34.58042 
L 300.872727 34.565508 
L 304.254545 34.561225 
L 307.636364 34.560222 
L 311.018182 34.560033 
L 314.4 34.560004 
L 317.781818 34.56 
L 321.163636 34.56 
L 324.545455 34.56 
L 327.927273 34.56 
L 331.309091 34.56 
L 334.690909 34.56 
L 338.072727 34.56 
L 341.454545 34.56 
L 344.836364 34.56 
L 348.218182 34.56 
L 351.6 34.56 
L 354.981818 34.56 
L 358.363636 34.56 
L 361.745455 34.56 
L 365.127273 34.56 
L 368.509091 34.56 
L 371.890909 34.56 
L 375.272727 34.56 
L 378.654545 34.56 
L 382.036364 34.56 
L 385.418182 34.56 
L 388.8 34.56 
" style="fill:none;stroke:#029e73;stroke-dasharray:5.55,2.4;stroke-dashoffset:0;stroke-width:1.5;"/>
   </g>
   <g id="line2d_42">
    <path clip-path="url(#pbf9fd9c6a2)" d="M 54 252 
L 57.381818 252 
L 60.763636 252 
L 64.145455 252 
L 67.527273 252 
L 70.909091 252 
L 74.290909 252 
L 77.672727 252 
L 81.054545 252 
L 84.436364 252 
L 87.818182 252 
L 91.2 252 
L 94.581818 252 
L 97.963636 252 
L 101.345455 252 
L 104.727273 252 
L 108.109091 252 
L 111.490909 252 
L 114.872727 252 
L 118.254545 252 
L 121.636364 252 
L 125.018182 251.999999 
L 128.4 251.999991 
L 131.781818 251.999948 
L 135.163636 251.999754 
L 138.545455 251.999016 
L 141.927273 251.996639 
L 145.309091 251.990138 
L 148.690909 251.974994 
L 152.072727 251.944793 
L 155.454545 251.892828 
L 158.836364 251.814735 
L 162.218182 251.710298 
L 165.6 251.582611 
L 168.981818 251.435049 
L 172.363636 251.268557 
L 175.745455 251.080935 
L 179.127273 250.867236 
L 182.509091 250.619782 
L 185.890909 250.328251 
L 189.272727 249.981237 
L 192.654545 249.568417 
L 196.036364 249.080208 
L 199.418182 248.503608 
L 202.8 247.817493 
L 206.181818 246.992416 
L 209.563636 245.995639 
L 212.945455 244.794872 
L 216.327273 243.352906 
L 219.709091 241.615758 
L 223.090909 239.510407 
L 226.472727 236.965171 
L 229.854545 233.942108 
L 233.236364 230.452054 
L 236.618182 226.536318 
L 240 222.232055 
L 243.381818 217.55042 
L 246.763636 212.4755 
L 250.145455 206.969801 
L 253.527273 200.975762 
L 256.909091 194.420252 
L 260.290909 187.235268 
L 263.672727 179.396976 
L 267.054545 170.966024 
L 270.436364 162.099785 
L 273.818182 153.017324 
L 277.2 143.931007 
L 280.581818 134.98802 
L 283.963636 126.260319 
L 287.345455 117.783115 
L 290.727273 109.603433 
L 294.109091 101.796515 
L 297.490909 94.442036 
L 300.872727 87.589644 
L 304.254545 81.245706 
L 307.636364 75.383995 
L 311.018182 69.962419 
L 314.4 64.937072 
L 317.781818 60.279341 
L 321.163636 55.994739 
L 324.545455 52.126271 
L 327.927273 48.730193 
L 331.309091 45.837934 
L 334.690909 43.433988 
L 338.072727 41.465292 
L 341.454545 39.868743 
L 344.836364 38.591419 
L 348.218182 37.591726 
L 351.6 36.829763 
L 354.981818 36.261167 
L 358.363636 35.840231 
L 361.745455 35.527799 
L 365.127273 35.296203 
L 368.509091 35.127584 
L 371.890909 35.008295 
L 375.272727 34.924856 
L 378.654545 34.864184 
L 382.036364 34.816089 
L 385.418182 34.774455 
L 388.8 34.736115 
" style="fill:none;stroke:#029e73;stroke-dasharray:1.5,2.475;stroke-dashoffset:0;stroke-width:1.5;"/>
   </g>
   <g id="line2d_43">
    <path clip-path="url(#pbf9fd9c6a2)" d="M 278.817466 56.304 
L 278.817466 34.56 
" style="fill:none;stroke:#000000;stroke-linecap:square;stroke-width:1.5;"/>
   </g>
   <g id="line2d_44">
    <path clip-path="url(#pbf9fd9c6a2)" d="M 118.652429 56.304 
L 118.652429 34.56 
" style="fill:none;stroke:#000000;stroke-linecap:square;stroke-width:1.5;"/>
   </g>
   <g id="patch_3">
    <path d="M 54 252 
L 54 34.56 
" style="fill:none;stroke:#000000;stroke-linecap:square;stroke-linejoin:miter;stroke-width:0.8;"/>
   </g>
   <g id="patch_4">
    <path d="M 388.8 252 
L 388.8 34.56 
" style="fill:none;stroke:#000000;stroke-linecap:square;stroke-linejoin:miter;stroke-width:0.8;"/>
   </g>
   <g id="patch_5">
    <path d="M 54 252 
L 388.8 252 
" style="fill:none;stroke:#000000;stroke-linecap:square;stroke-linejoin:miter;stroke-width:0.8;"/>
   </g>
   <g id="patch_6">
    <path d="M 54 34.56 
L 388.8 34.56 
" style="fill:none;stroke:#000000;stroke-linecap:square;stroke-linejoin:miter;stroke-width:0.8;"/>
   </g>
   <g id="text_12">
    <g id="patch_7">
     <path d="M 280.317466 54.271063 
L 344.128404 54.271063 
L 344.128404 36.592938 
L 280.317466 36.592938 
z
" style="fill:#ffffff;fill-opacity:0.9;stroke:#ffffff;stroke-linejoin:miter;stroke-opacity:0.9;"/>
    </g>
    <!-- GW170818 -->
    <defs>
     <path d="M 59.515625 10.40625 
L 59.515625 29.984375 
L 43.40625 29.984375 
L 43.40625 38.09375 
L 69.28125 38.09375 
L 69.28125 6.78125 
Q 63.578125 2.734375 56.6875 0.65625 
Q 49.8125 -1.421875 42 -1.421875 
Q 24.90625 -1.421875 15.25 8.5625 
Q 5.609375 18.5625 5.609375 36.375 
Q 5.609375 54.25 15.25 64.234375 
Q 24.90625 74.21875 42 74.21875 
Q 49.125 74.21875 55.546875 72.453125 
Q 61.96875 70.703125 67.390625 67.28125 
L 67.390625 56.78125 
Q 61.921875 61.421875 55.765625 63.765625 
Q 49.609375 66.109375 42.828125 66.109375 
Q 29.4375 66.109375 22.71875 58.640625 
Q 16.015625 51.171875 16.015625 36.375 
Q 16.015625 21.625 22.71875 14.15625 
Q 29.4375 6.6875 42.828125 6.6875 
Q 48.046875 6.6875 52.140625 7.59375 
Q 56.25 8.5 59.515625 10.40625 
z
" id="DejaVuSans-71"/>
     <path d="M 3.328125 72.90625 
L 13.28125 72.90625 
L 28.609375 11.28125 
L 43.890625 72.90625 
L 54.984375 72.90625 
L 70.3125 11.28125 
L 85.59375 72.90625 
L 95.609375 72.90625 
L 77.296875 0 
L 64.890625 0 
L 49.515625 63.28125 
L 33.984375 0 
L 21.578125 0 
z
" id="DejaVuSans-87"/>
     <path d="M 31.78125 34.625 
Q 24.75 34.625 20.71875 30.859375 
Q 16.703125 27.09375 16.703125 20.515625 
Q 16.703125 13.921875 20.71875 10.15625 
Q 24.75 6.390625 31.78125 6.390625 
Q 38.8125 6.390625 42.859375 10.171875 
Q 46.921875 13.96875 46.921875 20.515625 
Q 46.921875 27.09375 42.890625 30.859375 
Q 38.875 34.625 31.78125 34.625 
z
M 21.921875 38.8125 
Q 15.578125 40.375 12.03125 44.71875 
Q 8.5 49.078125 8.5 55.328125 
Q 8.5 64.0625 14.71875 69.140625 
Q 20.953125 74.21875 31.78125 74.21875 
Q 42.671875 74.21875 48.875 69.140625 
Q 55.078125 64.0625 55.078125 55.328125 
Q 55.078125 49.078125 51.53125 44.71875 
Q 48 40.375 41.703125 38.8125 
Q 48.828125 37.15625 52.796875 32.3125 
Q 56.78125 27.484375 56.78125 20.515625 
Q 56.78125 9.90625 50.3125 4.234375 
Q 43.84375 -1.421875 31.78125 -1.421875 
Q 19.734375 -1.421875 13.25 4.234375 
Q 6.78125 9.90625 6.78125 20.515625 
Q 6.78125 27.484375 10.78125 32.3125 
Q 14.796875 37.15625 21.921875 38.8125 
z
M 18.3125 54.390625 
Q 18.3125 48.734375 21.84375 45.5625 
Q 25.390625 42.390625 31.78125 42.390625 
Q 38.140625 42.390625 41.71875 45.5625 
Q 45.3125 48.734375 45.3125 54.390625 
Q 45.3125 60.0625 41.71875 63.234375 
Q 38.140625 66.40625 31.78125 66.40625 
Q 25.390625 66.40625 21.84375 63.234375 
Q 18.3125 60.0625 18.3125 54.390625 
z
" id="DejaVuSans-56"/>
    </defs>
    <g transform="translate(284.317466 48.191375)scale(0.1 -0.1)">
     <use xlink:href="#DejaVuSans-71"/>
     <use x="77.490234" xlink:href="#DejaVuSans-87"/>
     <use x="176.367188" xlink:href="#DejaVuSans-49"/>
     <use x="239.990234" xlink:href="#DejaVuSans-55"/>
     <use x="303.613281" xlink:href="#DejaVuSans-48"/>
     <use x="367.236328" xlink:href="#DejaVuSans-56"/>
     <use x="430.859375" xlink:href="#DejaVuSans-49"/>
     <use x="494.482422" xlink:href="#DejaVuSans-56"/>
    </g>
   </g>
   <g id="text_13">
    <g id="patch_8">
     <path d="M 120.152429 54.271063 
L 183.963367 54.271063 
L 183.963367 36.592938 
L 120.152429 36.592938 
z
" style="fill:#ffffff;fill-opacity:0.9;stroke:#ffffff;stroke-linejoin:miter;stroke-opacity:0.9;"/>
    </g>
    <!-- GW170817 -->
    <g transform="translate(124.152429 48.191375)scale(0.1 -0.1)">
     <use xlink:href="#DejaVuSans-71"/>
     <use x="77.490234" xlink:href="#DejaVuSans-87"/>
     <use x="176.367188" xlink:href="#DejaVuSans-49"/>
     <use x="239.990234" xlink:href="#DejaVuSans-55"/>
     <use x="303.613281" xlink:href="#DejaVuSans-48"/>
     <use x="367.236328" xlink:href="#DejaVuSans-56"/>
     <use x="430.859375" xlink:href="#DejaVuSans-49"/>
     <use x="494.482422" xlink:href="#DejaVuSans-55"/>
    </g>
   </g>
   <g id="legend_1">
    <g id="patch_9">
     <path d="M 305.723438 247 
L 381.8 247 
Q 383.8 247 383.8 245 
L 383.8 157.93125 
Q 383.8 155.93125 381.8 155.93125 
L 305.723438 155.93125 
Q 303.723438 155.93125 303.723438 157.93125 
L 303.723438 245 
Q 303.723438 247 305.723438 247 
z
" style="fill:#ffffff;opacity:0.8;stroke:#cccccc;stroke-linejoin:miter;"/>
    </g>
    <g id="line2d_45">
     <path d="M 307.723438 164.029688 
L 327.723438 164.029688 
" style="fill:none;stroke:#000000;stroke-linecap:square;stroke-width:1.5;"/>
    </g>
    <g id="line2d_46"/>
    <g id="text_14">
     <!-- BNS -->
     <defs>
      <path d="M 19.671875 34.8125 
L 19.671875 8.109375 
L 35.5 8.109375 
Q 43.453125 8.109375 47.28125 11.40625 
Q 51.125 14.703125 51.125 21.484375 
Q 51.125 28.328125 47.28125 31.5625 
Q 43.453125 34.8125 35.5 34.8125 
z
M 19.671875 64.796875 
L 19.671875 42.828125 
L 34.28125 42.828125 
Q 41.5 42.828125 45.03125 45.53125 
Q 48.578125 48.25 48.578125 53.8125 
Q 48.578125 59.328125 45.03125 62.0625 
Q 41.5 64.796875 34.28125 64.796875 
z
M 9.8125 72.90625 
L 35.015625 72.90625 
Q 46.296875 72.90625 52.390625 68.21875 
Q 58.5 63.53125 58.5 54.890625 
Q 58.5 48.1875 55.375 44.234375 
Q 52.25 40.28125 46.1875 39.3125 
Q 53.46875 37.75 57.5 32.78125 
Q 61.53125 27.828125 61.53125 20.40625 
Q 61.53125 10.640625 54.890625 5.3125 
Q 48.25 0 35.984375 0 
L 9.8125 0 
z
" id="DejaVuSans-66"/>
      <path d="M 9.8125 72.90625 
L 23.09375 72.90625 
L 55.421875 11.921875 
L 55.421875 72.90625 
L 64.984375 72.90625 
L 64.984375 0 
L 51.703125 0 
L 19.390625 60.984375 
L 19.390625 0 
L 9.8125 0 
z
" id="DejaVuSans-78"/>
      <path d="M 53.515625 70.515625 
L 53.515625 60.890625 
Q 47.90625 63.578125 42.921875 64.890625 
Q 37.9375 66.21875 33.296875 66.21875 
Q 25.25 66.21875 20.875 63.09375 
Q 16.5 59.96875 16.5 54.203125 
Q 16.5 49.359375 19.40625 46.890625 
Q 22.3125 44.4375 30.421875 42.921875 
L 36.375 41.703125 
Q 47.40625 39.59375 52.65625 34.296875 
Q 57.90625 29 57.90625 20.125 
Q 57.90625 9.515625 50.796875 4.046875 
Q 43.703125 -1.421875 29.984375 -1.421875 
Q 24.8125 -1.421875 18.96875 -0.25 
Q 13.140625 0.921875 6.890625 3.21875 
L 6.890625 13.375 
Q 12.890625 10.015625 18.65625 8.296875 
Q 24.421875 6.59375 29.984375 6.59375 
Q 38.421875 6.59375 43.015625 9.90625 
Q 47.609375 13.234375 47.609375 19.390625 
Q 47.609375 24.75 44.3125 27.78125 
Q 41.015625 30.8125 33.5 32.328125 
L 27.484375 33.5 
Q 16.453125 35.6875 11.515625 40.375 
Q 6.59375 45.0625 6.59375 53.421875 
Q 6.59375 63.09375 13.40625 68.65625 
Q 20.21875 74.21875 32.171875 74.21875 
Q 37.3125 74.21875 42.625 73.28125 
Q 47.953125 72.359375 53.515625 70.515625 
z
" id="DejaVuSans-83"/>
     </defs>
     <g transform="translate(335.723438 167.529688)scale(0.1 -0.1)">
      <use xlink:href="#DejaVuSans-66"/>
      <use x="68.603516" xlink:href="#DejaVuSans-78"/>
      <use x="143.408203" xlink:href="#DejaVuSans-83"/>
     </g>
    </g>
    <g id="line2d_47">
     <path d="M 307.723438 178.707813 
L 327.723438 178.707813 
" style="fill:none;stroke:#000000;stroke-dasharray:5.55,2.4;stroke-dashoffset:0;stroke-width:1.5;"/>
    </g>
    <g id="line2d_48"/>
    <g id="text_15">
     <!-- NSBH -->
     <defs>
      <path d="M 9.8125 72.90625 
L 19.671875 72.90625 
L 19.671875 43.015625 
L 55.515625 43.015625 
L 55.515625 72.90625 
L 65.375 72.90625 
L 65.375 0 
L 55.515625 0 
L 55.515625 34.71875 
L 19.671875 34.71875 
L 19.671875 0 
L 9.8125 0 
z
" id="DejaVuSans-72"/>
     </defs>
     <g transform="translate(335.723438 182.207813)scale(0.1 -0.1)">
      <use xlink:href="#DejaVuSans-78"/>
      <use x="74.804688" xlink:href="#DejaVuSans-83"/>
      <use x="138.28125" xlink:href="#DejaVuSans-66"/>
      <use x="206.884766" xlink:href="#DejaVuSans-72"/>
     </g>
    </g>
    <g id="line2d_49">
     <path d="M 307.723438 193.385938 
L 327.723438 193.385938 
" style="fill:none;stroke:#000000;stroke-dasharray:1.5,2.475;stroke-dashoffset:0;stroke-width:1.5;"/>
    </g>
    <g id="line2d_50"/>
    <g id="text_16">
     <!-- BBH -->
     <g transform="translate(335.723438 196.885938)scale(0.1 -0.1)">
      <use xlink:href="#DejaVuSans-66"/>
      <use x="68.603516" xlink:href="#DejaVuSans-66"/>
      <use x="137.207031" xlink:href="#DejaVuSans-72"/>
     </g>
    </g>
    <g id="patch_10">
     <path d="M 307.723438 211.564063 
L 327.723438 211.564063 
L 327.723438 204.564063 
L 307.723438 204.564063 
z
" style="fill:#0173b2;"/>
    </g>
    <g id="text_17">
     <!-- O3/HLV -->
     <defs>
      <path d="M 39.40625 66.21875 
Q 28.65625 66.21875 22.328125 58.203125 
Q 16.015625 50.203125 16.015625 36.375 
Q 16.015625 22.609375 22.328125 14.59375 
Q 28.65625 6.59375 39.40625 6.59375 
Q 50.140625 6.59375 56.421875 14.59375 
Q 62.703125 22.609375 62.703125 36.375 
Q 62.703125 50.203125 56.421875 58.203125 
Q 50.140625 66.21875 39.40625 66.21875 
z
M 39.40625 74.21875 
Q 54.734375 74.21875 63.90625 63.9375 
Q 73.09375 53.65625 73.09375 36.375 
Q 73.09375 19.140625 63.90625 8.859375 
Q 54.734375 -1.421875 39.40625 -1.421875 
Q 24.03125 -1.421875 14.8125 8.828125 
Q 5.609375 19.09375 5.609375 36.375 
Q 5.609375 53.65625 14.8125 63.9375 
Q 24.03125 74.21875 39.40625 74.21875 
z
" id="DejaVuSans-79"/>
      <path d="M 25.390625 72.90625 
L 33.6875 72.90625 
L 8.296875 -9.28125 
L 0 -9.28125 
z
" id="DejaVuSans-47"/>
      <path d="M 28.609375 0 
L 0.78125 72.90625 
L 11.078125 72.90625 
L 34.1875 11.53125 
L 57.328125 72.90625 
L 67.578125 72.90625 
L 39.796875 0 
z
" id="DejaVuSans-86"/>
     </defs>
     <g transform="translate(335.723438 211.564063)scale(0.1 -0.1)">
      <use xlink:href="#DejaVuSans-79"/>
      <use x="78.710938" xlink:href="#DejaVuSans-51"/>
      <use x="142.333984" xlink:href="#DejaVuSans-47"/>
      <use x="176.025391" xlink:href="#DejaVuSans-72"/>
      <use x="251.220703" xlink:href="#DejaVuSans-76"/>
      <use x="306.761719" xlink:href="#DejaVuSans-86"/>
     </g>
    </g>
    <g id="patch_11">
     <path d="M 307.723438 226.242188 
L 327.723438 226.242188 
L 327.723438 219.242188 
L 307.723438 219.242188 
z
" style="fill:#de8f05;"/>
    </g>
    <g id="text_18">
     <!-- O3/HLVK -->
     <defs>
      <path d="M 9.8125 72.90625 
L 19.671875 72.90625 
L 19.671875 42.09375 
L 52.390625 72.90625 
L 65.09375 72.90625 
L 28.90625 38.921875 
L 67.671875 0 
L 54.6875 0 
L 19.671875 35.109375 
L 19.671875 0 
L 9.8125 0 
z
" id="DejaVuSans-75"/>
     </defs>
     <g transform="translate(335.723438 226.242188)scale(0.1 -0.1)">
      <use xlink:href="#DejaVuSans-79"/>
      <use x="78.710938" xlink:href="#DejaVuSans-51"/>
      <use x="142.333984" xlink:href="#DejaVuSans-47"/>
      <use x="176.025391" xlink:href="#DejaVuSans-72"/>
      <use x="251.220703" xlink:href="#DejaVuSans-76"/>
      <use x="306.761719" xlink:href="#DejaVuSans-86"/>
      <use x="375.169922" xlink:href="#DejaVuSans-75"/>
     </g>
    </g>
    <g id="patch_12">
     <path d="M 307.723438 240.920313 
L 327.723438 240.920313 
L 327.723438 233.920313 
L 307.723438 233.920313 
z
" style="fill:#029e73;"/>
    </g>
    <g id="text_19">
     <!-- O4/HLVK -->
     <g transform="translate(335.723438 240.920313)scale(0.1 -0.1)">
      <use xlink:href="#DejaVuSans-79"/>
      <use x="78.710938" xlink:href="#DejaVuSans-52"/>
      <use x="142.333984" xlink:href="#DejaVuSans-47"/>
      <use x="176.025391" xlink:href="#DejaVuSans-72"/>
      <use x="251.220703" xlink:href="#DejaVuSans-76"/>
      <use x="306.761719" xlink:href="#DejaVuSans-86"/>
      <use x="375.169922" xlink:href="#DejaVuSans-75"/>
     </g>
    </g>
   </g>
  </g>
  <g id="axes_2">
   <g id="matplotlib.axis_3">
    <g id="xtick_29">
     <g id="line2d_51">
      <defs>
       <path d="M 0 0 
L 0 -3.5 
" id="m365458d067" style="stroke:#000000;stroke-width:0.8;"/>
      </defs>
      <g>
       <use style="stroke:#000000;stroke-width:0.8;" x="126.460447" xlink:href="#m365458d067" y="34.56"/>
      </g>
     </g>
     <g id="text_20">
      <!-- 0.01 -->
      <g transform="translate(115.327635 25.480313)scale(0.1 -0.1)">
       <use xlink:href="#DejaVuSans-48"/>
       <use x="63.623047" xlink:href="#DejaVuSans-46"/>
       <use x="95.410156" xlink:href="#DejaVuSans-48"/>
       <use x="159.033203" xlink:href="#DejaVuSans-49"/>
      </g>
     </g>
    </g>
    <g id="xtick_30">
     <g id="line2d_52">
      <g>
       <use style="stroke:#000000;stroke-width:0.8;" x="241.153375" xlink:href="#m365458d067" y="34.56"/>
      </g>
     </g>
     <g id="text_21">
      <!-- 0.1 -->
      <g transform="translate(233.201812 25.480313)scale(0.1 -0.1)">
       <use xlink:href="#DejaVuSans-48"/>
       <use x="63.623047" xlink:href="#DejaVuSans-46"/>
       <use x="95.410156" xlink:href="#DejaVuSans-49"/>
      </g>
     </g>
    </g>
    <g id="xtick_31">
     <g id="line2d_53">
      <g>
       <use style="stroke:#000000;stroke-width:0.8;" x="370.049591" xlink:href="#m365458d067" y="34.56"/>
      </g>
     </g>
     <g id="text_22">
      <!-- 1 -->
      <g transform="translate(366.868341 25.480313)scale(0.1 -0.1)">
       <use xlink:href="#DejaVuSans-49"/>
      </g>
     </g>
    </g>
    <g id="xtick_32">
     <g id="line2d_54">
      <defs>
       <path d="M 0 0 
L 0 -2 
" id="mb05af5bfcf" style="stroke:#000000;stroke-width:0.6;"/>
      </defs>
      <g>
       <use style="stroke:#000000;stroke-width:0.6;" x="67.849052" xlink:href="#mb05af5bfcf" y="34.56"/>
      </g>
     </g>
    </g>
    <g id="xtick_33">
     <g id="line2d_55">
      <g>
       <use style="stroke:#000000;stroke-width:0.6;" x="81.829256" xlink:href="#mb05af5bfcf" y="34.56"/>
      </g>
     </g>
    </g>
    <g id="xtick_34">
     <g id="line2d_56">
      <g>
       <use style="stroke:#000000;stroke-width:0.6;" x="92.681398" xlink:href="#mb05af5bfcf" y="34.56"/>
      </g>
     </g>
    </g>
    <g id="xtick_35">
     <g id="line2d_57">
      <g>
       <use style="stroke:#000000;stroke-width:0.6;" x="101.554955" xlink:href="#mb05af5bfcf" y="34.56"/>
      </g>
     </g>
    </g>
    <g id="xtick_36">
     <g id="line2d_58">
      <g>
       <use style="stroke:#000000;stroke-width:0.6;" x="109.063092" xlink:href="#mb05af5bfcf" y="34.56"/>
      </g>
     </g>
    </g>
    <g id="xtick_37">
     <g id="line2d_59">
      <g>
       <use style="stroke:#000000;stroke-width:0.6;" x="115.571814" xlink:href="#mb05af5bfcf" y="34.56"/>
      </g>
     </g>
    </g>
    <g id="xtick_38">
     <g id="line2d_60">
      <g>
       <use style="stroke:#000000;stroke-width:0.6;" x="121.3172" xlink:href="#mb05af5bfcf" y="34.56"/>
      </g>
     </g>
    </g>
    <g id="xtick_39">
     <g id="line2d_61">
      <g>
       <use style="stroke:#000000;stroke-width:0.6;" x="160.41952" xlink:href="#mb05af5bfcf" y="34.56"/>
      </g>
     </g>
    </g>
    <g id="xtick_40">
     <g id="line2d_62">
      <g>
       <use style="stroke:#000000;stroke-width:0.6;" x="180.43008" xlink:href="#mb05af5bfcf" y="34.56"/>
      </g>
     </g>
    </g>
    <g id="xtick_41">
     <g id="line2d_63">
      <g>
       <use style="stroke:#000000;stroke-width:0.6;" x="194.726773" xlink:href="#mb05af5bfcf" y="34.56"/>
      </g>
     </g>
    </g>
    <g id="xtick_42">
     <g id="line2d_64">
      <g>
       <use style="stroke:#000000;stroke-width:0.6;" x="205.890315" xlink:href="#mb05af5bfcf" y="34.56"/>
      </g>
     </g>
    </g>
    <g id="xtick_43">
     <g id="line2d_65">
      <g>
       <use style="stroke:#000000;stroke-width:0.6;" x="215.07028" xlink:href="#mb05af5bfcf" y="34.56"/>
      </g>
     </g>
    </g>
    <g id="xtick_44">
     <g id="line2d_66">
      <g>
       <use style="stroke:#000000;stroke-width:0.6;" x="222.879929" xlink:href="#mb05af5bfcf" y="34.56"/>
      </g>
     </g>
    </g>
    <g id="xtick_45">
     <g id="line2d_67">
      <g>
       <use style="stroke:#000000;stroke-width:0.6;" x="229.685362" xlink:href="#mb05af5bfcf" y="34.56"/>
      </g>
     </g>
    </g>
    <g id="xtick_46">
     <g id="line2d_68">
      <g>
       <use style="stroke:#000000;stroke-width:0.6;" x="235.722749" xlink:href="#mb05af5bfcf" y="34.56"/>
      </g>
     </g>
    </g>
    <g id="xtick_47">
     <g id="line2d_69">
      <g>
       <use style="stroke:#000000;stroke-width:0.6;" x="277.750343" xlink:href="#mb05af5bfcf" y="34.56"/>
      </g>
     </g>
    </g>
    <g id="xtick_48">
     <g id="line2d_70">
      <g>
       <use style="stroke:#000000;stroke-width:0.6;" x="300.021447" xlink:href="#mb05af5bfcf" y="34.56"/>
      </g>
     </g>
    </g>
    <g id="xtick_49">
     <g id="line2d_71">
      <g>
       <use style="stroke:#000000;stroke-width:0.6;" x="316.263867" xlink:href="#mb05af5bfcf" y="34.56"/>
      </g>
     </g>
    </g>
    <g id="xtick_50">
     <g id="line2d_72">
      <g>
       <use style="stroke:#000000;stroke-width:0.6;" x="329.109197" xlink:href="#mb05af5bfcf" y="34.56"/>
      </g>
     </g>
    </g>
    <g id="xtick_51">
     <g id="line2d_73">
      <g>
       <use style="stroke:#000000;stroke-width:0.6;" x="339.748683" xlink:href="#mb05af5bfcf" y="34.56"/>
      </g>
     </g>
    </g>
    <g id="xtick_52">
     <g id="line2d_74">
      <g>
       <use style="stroke:#000000;stroke-width:0.6;" x="348.829866" xlink:href="#mb05af5bfcf" y="34.56"/>
      </g>
     </g>
    </g>
    <g id="xtick_53">
     <g id="line2d_75">
      <g>
       <use style="stroke:#000000;stroke-width:0.6;" x="356.747146" xlink:href="#mb05af5bfcf" y="34.56"/>
      </g>
     </g>
    </g>
    <g id="xtick_54">
     <g id="line2d_76">
      <g>
       <use style="stroke:#000000;stroke-width:0.6;" x="363.760134" xlink:href="#mb05af5bfcf" y="34.56"/>
      </g>
     </g>
    </g>
    <g id="text_23">
     <!-- Redshift -->
     <defs>
      <path d="M 44.390625 34.1875 
Q 47.5625 33.109375 50.5625 29.59375 
Q 53.5625 26.078125 56.59375 19.921875 
L 66.609375 0 
L 56 0 
L 46.6875 18.703125 
Q 43.0625 26.03125 39.671875 28.421875 
Q 36.28125 30.8125 30.421875 30.8125 
L 19.671875 30.8125 
L 19.671875 0 
L 9.8125 0 
L 9.8125 72.90625 
L 32.078125 72.90625 
Q 44.578125 72.90625 50.734375 67.671875 
Q 56.890625 62.453125 56.890625 51.90625 
Q 56.890625 45.015625 53.6875 40.46875 
Q 50.484375 35.9375 44.390625 34.1875 
z
M 19.671875 64.796875 
L 19.671875 38.921875 
L 32.078125 38.921875 
Q 39.203125 38.921875 42.84375 42.21875 
Q 46.484375 45.515625 46.484375 51.90625 
Q 46.484375 58.296875 42.84375 61.546875 
Q 39.203125 64.796875 32.078125 64.796875 
z
" id="DejaVuSans-82"/>
      <path d="M 54.890625 33.015625 
L 54.890625 0 
L 45.90625 0 
L 45.90625 32.71875 
Q 45.90625 40.484375 42.875 44.328125 
Q 39.84375 48.1875 33.796875 48.1875 
Q 26.515625 48.1875 22.3125 43.546875 
Q 18.109375 38.921875 18.109375 30.90625 
L 18.109375 0 
L 9.078125 0 
L 9.078125 75.984375 
L 18.109375 75.984375 
L 18.109375 46.1875 
Q 21.34375 51.125 25.703125 53.5625 
Q 30.078125 56 35.796875 56 
Q 45.21875 56 50.046875 50.171875 
Q 54.890625 44.34375 54.890625 33.015625 
z
" id="DejaVuSans-104"/>
     </defs>
     <g transform="translate(200.796094 13.881875)scale(0.1 -0.1)">
      <use xlink:href="#DejaVuSans-82"/>
      <use x="69.419922" xlink:href="#DejaVuSans-101"/>
      <use x="130.943359" xlink:href="#DejaVuSans-100"/>
      <use x="194.419922" xlink:href="#DejaVuSans-115"/>
      <use x="246.519531" xlink:href="#DejaVuSans-104"/>
      <use x="309.898438" xlink:href="#DejaVuSans-105"/>
      <use x="337.681641" xlink:href="#DejaVuSans-102"/>
      <use x="372.871094" xlink:href="#DejaVuSans-116"/>
     </g>
    </g>
   </g>
   <g id="patch_13">
    <path d="M 54 252 
L 54 34.56 
" style="fill:none;stroke:#000000;stroke-linecap:square;stroke-linejoin:miter;stroke-width:0.8;"/>
   </g>
   <g id="patch_14">
    <path d="M 388.8 252 
L 388.8 34.56 
" style="fill:none;stroke:#000000;stroke-linecap:square;stroke-linejoin:miter;stroke-width:0.8;"/>
   </g>
   <g id="patch_15">
    <path d="M 54 252 
L 388.8 252 
" style="fill:none;stroke:#000000;stroke-linecap:square;stroke-linejoin:miter;stroke-width:0.8;"/>
   </g>
   <g id="patch_16">
    <path d="M 54 34.56 
L 388.8 34.56 
" style="fill:none;stroke:#000000;stroke-linecap:square;stroke-linejoin:miter;stroke-width:0.8;"/>
   </g>
  </g>
 </g>
 <defs>
  <clipPath id="pbf9fd9c6a2">
   <rect height="217.44" width="334.8" x="54" y="34.56"/>
  </clipPath>
 </defs>
</svg>
