<?xml version="1.0" encoding="utf-8" standalone="no"?>
<!DOCTYPE svg PUBLIC "-//W3C//DTD SVG 1.1//EN"
  "http://www.w3.org/Graphics/SVG/1.1/DTD/svg11.dtd">
<!-- Created with matplotlib (https://matplotlib.org/) -->
<svg height="288pt" version="1.1" viewBox="0 0 432 288" width="432pt" xmlns="http://www.w3.org/2000/svg" xmlns:xlink="http://www.w3.org/1999/xlink">
 <defs>
  <style type="text/css">
*{stroke-linecap:butt;stroke-linejoin:round;}
  </style>
 </defs>
 <g id="figure_1">
  <g id="patch_1">
   <path d="M 0 288 
L 432 288 
L 432 0 
L 0 0 
z
" style="fill:#ffffff;"/>
  </g>
  <g id="axes_1">
   <g id="patch_2">
    <path d="M 54 252 
L 388.8 252 
L 388.8 34.56 
L 54 34.56 
z
" style="fill:#ffffff;"/>
   </g>
   <g id="matplotlib.axis_1">
    <g id="xtick_1">
     <g id="line2d_1">
      <defs>
       <path d="M 0 0 
L 0 3.5 
" id="m0b406c5d78" style="stroke:#000000;stroke-width:0.8;"/>
      </defs>
      <g>
       <use style="stroke:#000000;stroke-width:0.8;" x="54" xlink:href="#m0b406c5d78" y="252"/>
      </g>
     </g>
     <g id="text_1">
      <!-- $\mathdefault{0.01}$ -->
      <defs>
       <path d="M 31.78125 66.40625 
Q 24.171875 66.40625 20.328125 58.90625 
Q 16.5 51.421875 16.5 36.375 
Q 16.5 21.390625 20.328125 13.890625 
Q 24.171875 6.390625 31.78125 6.390625 
Q 39.453125 6.390625 43.28125 13.890625 
Q 47.125 21.390625 47.125 36.375 
Q 47.125 51.421875 43.28125 58.90625 
Q 39.453125 66.40625 31.78125 66.40625 
z
M 31.78125 74.21875 
Q 44.046875 74.21875 50.515625 64.515625 
Q 56.984375 54.828125 56.984375 36.375 
Q 56.984375 17.96875 50.515625 8.265625 
Q 44.046875 -1.421875 31.78125 -1.421875 
Q 19.53125 -1.421875 13.0625 8.265625 
Q 6.59375 17.96875 6.59375 36.375 
Q 6.59375 54.828125 13.0625 64.515625 
Q 19.53125 74.21875 31.78125 74.21875 
z
" id="DejaVuSans-48"/>
       <path d="M 10.6875 12.40625 
L 21 12.40625 
L 21 0 
L 10.6875 0 
z
" id="DejaVuSans-46"/>
       <path d="M 12.40625 8.296875 
L 28.515625 8.296875 
L 28.515625 63.921875 
L 10.984375 60.40625 
L 10.984375 69.390625 
L 28.421875 72.90625 
L 38.28125 72.90625 
L 38.28125 8.296875 
L 54.390625 8.296875 
L 54.390625 0 
L 12.40625 0 
z
" id="DejaVuSans-49"/>
      </defs>
      <g transform="translate(42.85 266.598437)scale(0.1 -0.1)">
       <use transform="translate(0 0.78125)" xlink:href="#DejaVuSans-48"/>
       <use transform="translate(63.623047 0.78125)" xlink:href="#DejaVuSans-46"/>
       <use transform="translate(95.410156 0.78125)" xlink:href="#DejaVuSans-48"/>
       <use transform="translate(159.033203 0.78125)" xlink:href="#DejaVuSans-49"/>
      </g>
     </g>
    </g>
    <g id="xtick_2">
     <g id="line2d_2">
      <g>
       <use style="stroke:#000000;stroke-width:0.8;" x="128.4" xlink:href="#m0b406c5d78" y="252"/>
      </g>
     </g>
     <g id="text_2">
      <!-- $\mathdefault{1}$ -->
      <g transform="translate(125.2 266.598437)scale(0.1 -0.1)">
       <use transform="translate(0 0.09375)" xlink:href="#DejaVuSans-49"/>
      </g>
     </g>
    </g>
    <g id="xtick_3">
     <g id="line2d_3">
      <g>
       <use style="stroke:#000000;stroke-width:0.8;" x="202.8" xlink:href="#m0b406c5d78" y="252"/>
      </g>
     </g>
     <g id="text_3">
      <!-- $\mathdefault{100}$ -->
      <g transform="translate(193.25 266.598437)scale(0.1 -0.1)">
       <use transform="translate(0 0.78125)" xlink:href="#DejaVuSans-49"/>
       <use transform="translate(63.623047 0.78125)" xlink:href="#DejaVuSans-48"/>
       <use transform="translate(127.246094 0.78125)" xlink:href="#DejaVuSans-48"/>
      </g>
     </g>
    </g>
    <g id="xtick_4">
     <g id="line2d_4">
      <g>
       <use style="stroke:#000000;stroke-width:0.8;" x="277.2" xlink:href="#m0b406c5d78" y="252"/>
      </g>
     </g>
     <g id="text_4">
      <!-- $\mathdefault{10^{4}}$ -->
      <defs>
       <path d="M 37.796875 64.3125 
L 12.890625 25.390625 
L 37.796875 25.390625 
z
M 35.203125 72.90625 
L 47.609375 72.90625 
L 47.609375 25.390625 
L 58.015625 25.390625 
L 58.015625 17.1875 
L 47.609375 17.1875 
L 47.609375 0 
L 37.796875 0 
L 37.796875 17.1875 
L 4.890625 17.1875 
L 4.890625 26.703125 
z
" id="DejaVuSans-52"/>
      </defs>
      <g transform="translate(268.4 266.598437)scale(0.1 -0.1)">
       <use transform="translate(0 0.684375)" xlink:href="#DejaVuSans-49"/>
       <use transform="translate(63.623047 0.684375)" xlink:href="#DejaVuSans-48"/>
       <use transform="translate(128.203125 38.965625)scale(0.7)" xlink:href="#DejaVuSans-52"/>
      </g>
     </g>
    </g>
    <g id="xtick_5">
     <g id="line2d_5">
      <g>
       <use style="stroke:#000000;stroke-width:0.8;" x="351.6" xlink:href="#m0b406c5d78" y="252"/>
      </g>
     </g>
     <g id="text_5">
      <!-- $\mathdefault{10^{6}}$ -->
      <defs>
       <path d="M 33.015625 40.375 
Q 26.375 40.375 22.484375 35.828125 
Q 18.609375 31.296875 18.609375 23.390625 
Q 18.609375 15.53125 22.484375 10.953125 
Q 26.375 6.390625 33.015625 6.390625 
Q 39.65625 6.390625 43.53125 10.953125 
Q 47.40625 15.53125 47.40625 23.390625 
Q 47.40625 31.296875 43.53125 35.828125 
Q 39.65625 40.375 33.015625 40.375 
z
M 52.59375 71.296875 
L 52.59375 62.3125 
Q 48.875 64.0625 45.09375 64.984375 
Q 41.3125 65.921875 37.59375 65.921875 
Q 27.828125 65.921875 22.671875 59.328125 
Q 17.53125 52.734375 16.796875 39.40625 
Q 19.671875 43.65625 24.015625 45.921875 
Q 28.375 48.1875 33.59375 48.1875 
Q 44.578125 48.1875 50.953125 41.515625 
Q 57.328125 34.859375 57.328125 23.390625 
Q 57.328125 12.15625 50.6875 5.359375 
Q 44.046875 -1.421875 33.015625 -1.421875 
Q 20.359375 -1.421875 13.671875 8.265625 
Q 6.984375 17.96875 6.984375 36.375 
Q 6.984375 53.65625 15.1875 63.9375 
Q 23.390625 74.21875 37.203125 74.21875 
Q 40.921875 74.21875 44.703125 73.484375 
Q 48.484375 72.75 52.59375 71.296875 
z
" id="DejaVuSans-54"/>
      </defs>
      <g transform="translate(342.8 266.598437)scale(0.1 -0.1)">
       <use transform="translate(0 0.765625)" xlink:href="#DejaVuSans-49"/>
       <use transform="translate(63.623047 0.765625)" xlink:href="#DejaVuSans-48"/>
       <use transform="translate(128.203125 39.046875)scale(0.7)" xlink:href="#DejaVuSans-54"/>
      </g>
     </g>
    </g>
    <g id="text_6">
     <!-- 90% credible comoving volume (10$^3$ Mpc$^3$) -->
     <defs>
      <path d="M 10.984375 1.515625 
L 10.984375 10.5 
Q 14.703125 8.734375 18.5 7.8125 
Q 22.3125 6.890625 25.984375 6.890625 
Q 35.75 6.890625 40.890625 13.453125 
Q 46.046875 20.015625 46.78125 33.40625 
Q 43.953125 29.203125 39.59375 26.953125 
Q 35.25 24.703125 29.984375 24.703125 
Q 19.046875 24.703125 12.671875 31.3125 
Q 6.296875 37.9375 6.296875 49.421875 
Q 6.296875 60.640625 12.9375 67.421875 
Q 19.578125 74.21875 30.609375 74.21875 
Q 43.265625 74.21875 49.921875 64.515625 
Q 56.59375 54.828125 56.59375 36.375 
Q 56.59375 19.140625 48.40625 8.859375 
Q 40.234375 -1.421875 26.421875 -1.421875 
Q 22.703125 -1.421875 18.890625 -0.6875 
Q 15.09375 0.046875 10.984375 1.515625 
z
M 30.609375 32.421875 
Q 37.25 32.421875 41.125 36.953125 
Q 45.015625 41.5 45.015625 49.421875 
Q 45.015625 57.28125 41.125 61.84375 
Q 37.25 66.40625 30.609375 66.40625 
Q 23.96875 66.40625 20.09375 61.84375 
Q 16.21875 57.28125 16.21875 49.421875 
Q 16.21875 41.5 20.09375 36.953125 
Q 23.96875 32.421875 30.609375 32.421875 
z
" id="DejaVuSans-57"/>
      <path d="M 72.703125 32.078125 
Q 68.453125 32.078125 66.03125 28.46875 
Q 63.625 24.859375 63.625 18.40625 
Q 63.625 12.0625 66.03125 8.421875 
Q 68.453125 4.78125 72.703125 4.78125 
Q 76.859375 4.78125 79.265625 8.421875 
Q 81.6875 12.0625 81.6875 18.40625 
Q 81.6875 24.8125 79.265625 28.4375 
Q 76.859375 32.078125 72.703125 32.078125 
z
M 72.703125 38.28125 
Q 80.421875 38.28125 84.953125 32.90625 
Q 89.5 27.546875 89.5 18.40625 
Q 89.5 9.28125 84.9375 3.921875 
Q 80.375 -1.421875 72.703125 -1.421875 
Q 64.890625 -1.421875 60.34375 3.921875 
Q 55.8125 9.28125 55.8125 18.40625 
Q 55.8125 27.59375 60.375 32.9375 
Q 64.9375 38.28125 72.703125 38.28125 
z
M 22.3125 68.015625 
Q 18.109375 68.015625 15.6875 64.375 
Q 13.28125 60.75 13.28125 54.390625 
Q 13.28125 47.953125 15.671875 44.328125 
Q 18.0625 40.71875 22.3125 40.71875 
Q 26.5625 40.71875 28.96875 44.328125 
Q 31.390625 47.953125 31.390625 54.390625 
Q 31.390625 60.6875 28.953125 64.34375 
Q 26.515625 68.015625 22.3125 68.015625 
z
M 66.40625 74.21875 
L 74.21875 74.21875 
L 28.609375 -1.421875 
L 20.796875 -1.421875 
z
M 22.3125 74.21875 
Q 30.03125 74.21875 34.609375 68.875 
Q 39.203125 63.53125 39.203125 54.390625 
Q 39.203125 45.171875 34.640625 39.84375 
Q 30.078125 34.515625 22.3125 34.515625 
Q 14.546875 34.515625 10.03125 39.859375 
Q 5.515625 45.21875 5.515625 54.390625 
Q 5.515625 63.484375 10.046875 68.84375 
Q 14.59375 74.21875 22.3125 74.21875 
z
" id="DejaVuSans-37"/>
      <path id="DejaVuSans-32"/>
      <path d="M 48.78125 52.59375 
L 48.78125 44.1875 
Q 44.96875 46.296875 41.140625 47.34375 
Q 37.3125 48.390625 33.40625 48.390625 
Q 24.65625 48.390625 19.8125 42.84375 
Q 14.984375 37.3125 14.984375 27.296875 
Q 14.984375 17.28125 19.8125 11.734375 
Q 24.65625 6.203125 33.40625 6.203125 
Q 37.3125 6.203125 41.140625 7.25 
Q 44.96875 8.296875 48.78125 10.40625 
L 48.78125 2.09375 
Q 45.015625 0.34375 40.984375 -0.53125 
Q 36.96875 -1.421875 32.421875 -1.421875 
Q 20.0625 -1.421875 12.78125 6.34375 
Q 5.515625 14.109375 5.515625 27.296875 
Q 5.515625 40.671875 12.859375 48.328125 
Q 20.21875 56 33.015625 56 
Q 37.15625 56 41.109375 55.140625 
Q 45.0625 54.296875 48.78125 52.59375 
z
" id="DejaVuSans-99"/>
      <path d="M 41.109375 46.296875 
Q 39.59375 47.171875 37.8125 47.578125 
Q 36.03125 48 33.890625 48 
Q 26.265625 48 22.1875 43.046875 
Q 18.109375 38.09375 18.109375 28.8125 
L 18.109375 0 
L 9.078125 0 
L 9.078125 54.6875 
L 18.109375 54.6875 
L 18.109375 46.1875 
Q 20.953125 51.171875 25.484375 53.578125 
Q 30.03125 56 36.53125 56 
Q 37.453125 56 38.578125 55.875 
Q 39.703125 55.765625 41.0625 55.515625 
z
" id="DejaVuSans-114"/>
      <path d="M 56.203125 29.59375 
L 56.203125 25.203125 
L 14.890625 25.203125 
Q 15.484375 15.921875 20.484375 11.0625 
Q 25.484375 6.203125 34.421875 6.203125 
Q 39.59375 6.203125 44.453125 7.46875 
Q 49.3125 8.734375 54.109375 11.28125 
L 54.109375 2.78125 
Q 49.265625 0.734375 44.1875 -0.34375 
Q 39.109375 -1.421875 33.890625 -1.421875 
Q 20.796875 -1.421875 13.15625 6.1875 
Q 5.515625 13.8125 5.515625 26.8125 
Q 5.515625 40.234375 12.765625 48.109375 
Q 20.015625 56 32.328125 56 
Q 43.359375 56 49.78125 48.890625 
Q 56.203125 41.796875 56.203125 29.59375 
z
M 47.21875 32.234375 
Q 47.125 39.59375 43.09375 43.984375 
Q 39.0625 48.390625 32.421875 48.390625 
Q 24.90625 48.390625 20.390625 44.140625 
Q 15.875 39.890625 15.1875 32.171875 
z
" id="DejaVuSans-101"/>
      <path d="M 45.40625 46.390625 
L 45.40625 75.984375 
L 54.390625 75.984375 
L 54.390625 0 
L 45.40625 0 
L 45.40625 8.203125 
Q 42.578125 3.328125 38.25 0.953125 
Q 33.9375 -1.421875 27.875 -1.421875 
Q 17.96875 -1.421875 11.734375 6.484375 
Q 5.515625 14.40625 5.515625 27.296875 
Q 5.515625 40.1875 11.734375 48.09375 
Q 17.96875 56 27.875 56 
Q 33.9375 56 38.25 53.625 
Q 42.578125 51.265625 45.40625 46.390625 
z
M 14.796875 27.296875 
Q 14.796875 17.390625 18.875 11.75 
Q 22.953125 6.109375 30.078125 6.109375 
Q 37.203125 6.109375 41.296875 11.75 
Q 45.40625 17.390625 45.40625 27.296875 
Q 45.40625 37.203125 41.296875 42.84375 
Q 37.203125 48.484375 30.078125 48.484375 
Q 22.953125 48.484375 18.875 42.84375 
Q 14.796875 37.203125 14.796875 27.296875 
z
" id="DejaVuSans-100"/>
      <path d="M 9.421875 54.6875 
L 18.40625 54.6875 
L 18.40625 0 
L 9.421875 0 
z
M 9.421875 75.984375 
L 18.40625 75.984375 
L 18.40625 64.59375 
L 9.421875 64.59375 
z
" id="DejaVuSans-105"/>
      <path d="M 48.6875 27.296875 
Q 48.6875 37.203125 44.609375 42.84375 
Q 40.53125 48.484375 33.40625 48.484375 
Q 26.265625 48.484375 22.1875 42.84375 
Q 18.109375 37.203125 18.109375 27.296875 
Q 18.109375 17.390625 22.1875 11.75 
Q 26.265625 6.109375 33.40625 6.109375 
Q 40.53125 6.109375 44.609375 11.75 
Q 48.6875 17.390625 48.6875 27.296875 
z
M 18.109375 46.390625 
Q 20.953125 51.265625 25.265625 53.625 
Q 29.59375 56 35.59375 56 
Q 45.5625 56 51.78125 48.09375 
Q 58.015625 40.1875 58.015625 27.296875 
Q 58.015625 14.40625 51.78125 6.484375 
Q 45.5625 -1.421875 35.59375 -1.421875 
Q 29.59375 -1.421875 25.265625 0.953125 
Q 20.953125 3.328125 18.109375 8.203125 
L 18.109375 0 
L 9.078125 0 
L 9.078125 75.984375 
L 18.109375 75.984375 
z
" id="DejaVuSans-98"/>
      <path d="M 9.421875 75.984375 
L 18.40625 75.984375 
L 18.40625 0 
L 9.421875 0 
z
" id="DejaVuSans-108"/>
      <path d="M 30.609375 48.390625 
Q 23.390625 48.390625 19.1875 42.75 
Q 14.984375 37.109375 14.984375 27.296875 
Q 14.984375 17.484375 19.15625 11.84375 
Q 23.34375 6.203125 30.609375 6.203125 
Q 37.796875 6.203125 41.984375 11.859375 
Q 46.1875 17.53125 46.1875 27.296875 
Q 46.1875 37.015625 41.984375 42.703125 
Q 37.796875 48.390625 30.609375 48.390625 
z
M 30.609375 56 
Q 42.328125 56 49.015625 48.375 
Q 55.71875 40.765625 55.71875 27.296875 
Q 55.71875 13.875 49.015625 6.21875 
Q 42.328125 -1.421875 30.609375 -1.421875 
Q 18.84375 -1.421875 12.171875 6.21875 
Q 5.515625 13.875 5.515625 27.296875 
Q 5.515625 40.765625 12.171875 48.375 
Q 18.84375 56 30.609375 56 
z
" id="DejaVuSans-111"/>
      <path d="M 52 44.1875 
Q 55.375 50.25 60.0625 53.125 
Q 64.75 56 71.09375 56 
Q 79.640625 56 84.28125 50.015625 
Q 88.921875 44.046875 88.921875 33.015625 
L 88.921875 0 
L 79.890625 0 
L 79.890625 32.71875 
Q 79.890625 40.578125 77.09375 44.375 
Q 74.3125 48.1875 68.609375 48.1875 
Q 61.625 48.1875 57.5625 43.546875 
Q 53.515625 38.921875 53.515625 30.90625 
L 53.515625 0 
L 44.484375 0 
L 44.484375 32.71875 
Q 44.484375 40.625 41.703125 44.40625 
Q 38.921875 48.1875 33.109375 48.1875 
Q 26.21875 48.1875 22.15625 43.53125 
Q 18.109375 38.875 18.109375 30.90625 
L 18.109375 0 
L 9.078125 0 
L 9.078125 54.6875 
L 18.109375 54.6875 
L 18.109375 46.1875 
Q 21.1875 51.21875 25.484375 53.609375 
Q 29.78125 56 35.6875 56 
Q 41.65625 56 45.828125 52.96875 
Q 50 49.953125 52 44.1875 
z
" id="DejaVuSans-109"/>
      <path d="M 2.984375 54.6875 
L 12.5 54.6875 
L 29.59375 8.796875 
L 46.6875 54.6875 
L 56.203125 54.6875 
L 35.6875 0 
L 23.484375 0 
z
" id="DejaVuSans-118"/>
      <path d="M 54.890625 33.015625 
L 54.890625 0 
L 45.90625 0 
L 45.90625 32.71875 
Q 45.90625 40.484375 42.875 44.328125 
Q 39.84375 48.1875 33.796875 48.1875 
Q 26.515625 48.1875 22.3125 43.546875 
Q 18.109375 38.921875 18.109375 30.90625 
L 18.109375 0 
L 9.078125 0 
L 9.078125 54.6875 
L 18.109375 54.6875 
L 18.109375 46.1875 
Q 21.34375 51.125 25.703125 53.5625 
Q 30.078125 56 35.796875 56 
Q 45.21875 56 50.046875 50.171875 
Q 54.890625 44.34375 54.890625 33.015625 
z
" id="DejaVuSans-110"/>
      <path d="M 45.40625 27.984375 
Q 45.40625 37.75 41.375 43.109375 
Q 37.359375 48.484375 30.078125 48.484375 
Q 22.859375 48.484375 18.828125 43.109375 
Q 14.796875 37.75 14.796875 27.984375 
Q 14.796875 18.265625 18.828125 12.890625 
Q 22.859375 7.515625 30.078125 7.515625 
Q 37.359375 7.515625 41.375 12.890625 
Q 45.40625 18.265625 45.40625 27.984375 
z
M 54.390625 6.78125 
Q 54.390625 -7.171875 48.1875 -13.984375 
Q 42 -20.796875 29.203125 -20.796875 
Q 24.46875 -20.796875 20.265625 -20.09375 
Q 16.0625 -19.390625 12.109375 -17.921875 
L 12.109375 -9.1875 
Q 16.0625 -11.328125 19.921875 -12.34375 
Q 23.78125 -13.375 27.78125 -13.375 
Q 36.625 -13.375 41.015625 -8.765625 
Q 45.40625 -4.15625 45.40625 5.171875 
L 45.40625 9.625 
Q 42.625 4.78125 38.28125 2.390625 
Q 33.9375 0 27.875 0 
Q 17.828125 0 11.671875 7.65625 
Q 5.515625 15.328125 5.515625 27.984375 
Q 5.515625 40.671875 11.671875 48.328125 
Q 17.828125 56 27.875 56 
Q 33.9375 56 38.28125 53.609375 
Q 42.625 51.21875 45.40625 46.390625 
L 45.40625 54.6875 
L 54.390625 54.6875 
z
" id="DejaVuSans-103"/>
      <path d="M 8.5 21.578125 
L 8.5 54.6875 
L 17.484375 54.6875 
L 17.484375 21.921875 
Q 17.484375 14.15625 20.5 10.265625 
Q 23.53125 6.390625 29.59375 6.390625 
Q 36.859375 6.390625 41.078125 11.03125 
Q 45.3125 15.671875 45.3125 23.6875 
L 45.3125 54.6875 
L 54.296875 54.6875 
L 54.296875 0 
L 45.3125 0 
L 45.3125 8.40625 
Q 42.046875 3.421875 37.71875 1 
Q 33.40625 -1.421875 27.6875 -1.421875 
Q 18.265625 -1.421875 13.375 4.4375 
Q 8.5 10.296875 8.5 21.578125 
z
M 31.109375 56 
z
" id="DejaVuSans-117"/>
      <path d="M 31 75.875 
Q 24.46875 64.65625 21.28125 53.65625 
Q 18.109375 42.671875 18.109375 31.390625 
Q 18.109375 20.125 21.3125 9.0625 
Q 24.515625 -2 31 -13.1875 
L 23.1875 -13.1875 
Q 15.875 -1.703125 12.234375 9.375 
Q 8.59375 20.453125 8.59375 31.390625 
Q 8.59375 42.28125 12.203125 53.3125 
Q 15.828125 64.359375 23.1875 75.875 
z
" id="DejaVuSans-40"/>
      <path d="M 40.578125 39.3125 
Q 47.65625 37.796875 51.625 33 
Q 55.609375 28.21875 55.609375 21.1875 
Q 55.609375 10.40625 48.1875 4.484375 
Q 40.765625 -1.421875 27.09375 -1.421875 
Q 22.515625 -1.421875 17.65625 -0.515625 
Q 12.796875 0.390625 7.625 2.203125 
L 7.625 11.71875 
Q 11.71875 9.328125 16.59375 8.109375 
Q 21.484375 6.890625 26.8125 6.890625 
Q 36.078125 6.890625 40.9375 10.546875 
Q 45.796875 14.203125 45.796875 21.1875 
Q 45.796875 27.640625 41.28125 31.265625 
Q 36.765625 34.90625 28.71875 34.90625 
L 20.21875 34.90625 
L 20.21875 43.015625 
L 29.109375 43.015625 
Q 36.375 43.015625 40.234375 45.921875 
Q 44.09375 48.828125 44.09375 54.296875 
Q 44.09375 59.90625 40.109375 62.90625 
Q 36.140625 65.921875 28.71875 65.921875 
Q 24.65625 65.921875 20.015625 65.03125 
Q 15.375 64.15625 9.8125 62.3125 
L 9.8125 71.09375 
Q 15.4375 72.65625 20.34375 73.4375 
Q 25.25 74.21875 29.59375 74.21875 
Q 40.828125 74.21875 47.359375 69.109375 
Q 53.90625 64.015625 53.90625 55.328125 
Q 53.90625 49.265625 50.4375 45.09375 
Q 46.96875 40.921875 40.578125 39.3125 
z
" id="DejaVuSans-51"/>
      <path d="M 9.8125 72.90625 
L 24.515625 72.90625 
L 43.109375 23.296875 
L 61.8125 72.90625 
L 76.515625 72.90625 
L 76.515625 0 
L 66.890625 0 
L 66.890625 64.015625 
L 48.09375 14.015625 
L 38.1875 14.015625 
L 19.390625 64.015625 
L 19.390625 0 
L 9.8125 0 
z
" id="DejaVuSans-77"/>
      <path d="M 18.109375 8.203125 
L 18.109375 -20.796875 
L 9.078125 -20.796875 
L 9.078125 54.6875 
L 18.109375 54.6875 
L 18.109375 46.390625 
Q 20.953125 51.265625 25.265625 53.625 
Q 29.59375 56 35.59375 56 
Q 45.5625 56 51.78125 48.09375 
Q 58.015625 40.1875 58.015625 27.296875 
Q 58.015625 14.40625 51.78125 6.484375 
Q 45.5625 -1.421875 35.59375 -1.421875 
Q 29.59375 -1.421875 25.265625 0.953125 
Q 20.953125 3.328125 18.109375 8.203125 
z
M 48.6875 27.296875 
Q 48.6875 37.203125 44.609375 42.84375 
Q 40.53125 48.484375 33.40625 48.484375 
Q 26.265625 48.484375 22.1875 42.84375 
Q 18.109375 37.203125 18.109375 27.296875 
Q 18.109375 17.390625 22.1875 11.75 
Q 26.265625 6.109375 33.40625 6.109375 
Q 40.53125 6.109375 44.609375 11.75 
Q 48.6875 17.390625 48.6875 27.296875 
z
" id="DejaVuSans-112"/>
      <path d="M 8.015625 75.875 
L 15.828125 75.875 
Q 23.140625 64.359375 26.78125 53.3125 
Q 30.421875 42.28125 30.421875 31.390625 
Q 30.421875 20.453125 26.78125 9.375 
Q 23.140625 -1.703125 15.828125 -13.1875 
L 8.015625 -13.1875 
Q 14.5 -2 17.703125 9.0625 
Q 20.90625 20.125 20.90625 31.390625 
Q 20.90625 42.671875 17.703125 53.65625 
Q 14.5 64.65625 8.015625 75.875 
z
" id="DejaVuSans-41"/>
     </defs>
     <g transform="translate(113.95 281.778125)scale(0.1 -0.1)">
      <use transform="translate(0 0.765625)" xlink:href="#DejaVuSans-57"/>
      <use transform="translate(63.623047 0.765625)" xlink:href="#DejaVuSans-48"/>
      <use transform="translate(127.246094 0.765625)" xlink:href="#DejaVuSans-37"/>
      <use transform="translate(222.265625 0.765625)" xlink:href="#DejaVuSans-32"/>
      <use transform="translate(254.052734 0.765625)" xlink:href="#DejaVuSans-99"/>
      <use transform="translate(309.033203 0.765625)" xlink:href="#DejaVuSans-114"/>
      <use transform="translate(350.146484 0.765625)" xlink:href="#DejaVuSans-101"/>
      <use transform="translate(411.669922 0.765625)" xlink:href="#DejaVuSans-100"/>
      <use transform="translate(475.146484 0.765625)" xlink:href="#DejaVuSans-105"/>
      <use transform="translate(502.929688 0.765625)" xlink:href="#DejaVuSans-98"/>
      <use transform="translate(566.40625 0.765625)" xlink:href="#DejaVuSans-108"/>
      <use transform="translate(594.189453 0.765625)" xlink:href="#DejaVuSans-101"/>
      <use transform="translate(655.712891 0.765625)" xlink:href="#DejaVuSans-32"/>
      <use transform="translate(687.5 0.765625)" xlink:href="#DejaVuSans-99"/>
      <use transform="translate(742.480469 0.765625)" xlink:href="#DejaVuSans-111"/>
      <use transform="translate(803.662109 0.765625)" xlink:href="#DejaVuSans-109"/>
      <use transform="translate(901.074219 0.765625)" xlink:href="#DejaVuSans-111"/>
      <use transform="translate(962.255859 0.765625)" xlink:href="#DejaVuSans-118"/>
      <use transform="translate(1021.435547 0.765625)" xlink:href="#DejaVuSans-105"/>
      <use transform="translate(1049.21875 0.765625)" xlink:href="#DejaVuSans-110"/>
      <use transform="translate(1112.597656 0.765625)" xlink:href="#DejaVuSans-103"/>
      <use transform="translate(1176.074219 0.765625)" xlink:href="#DejaVuSans-32"/>
      <use transform="translate(1207.861328 0.765625)" xlink:href="#DejaVuSans-118"/>
      <use transform="translate(1267.041016 0.765625)" xlink:href="#DejaVuSans-111"/>
      <use transform="translate(1328.222656 0.765625)" xlink:href="#DejaVuSans-108"/>
      <use transform="translate(1356.005859 0.765625)" xlink:href="#DejaVuSans-117"/>
      <use transform="translate(1419.384766 0.765625)" xlink:href="#DejaVuSans-109"/>
      <use transform="translate(1516.796875 0.765625)" xlink:href="#DejaVuSans-101"/>
      <use transform="translate(1578.320312 0.765625)" xlink:href="#DejaVuSans-32"/>
      <use transform="translate(1610.107422 0.765625)" xlink:href="#DejaVuSans-40"/>
      <use transform="translate(1649.121094 0.765625)" xlink:href="#DejaVuSans-49"/>
      <use transform="translate(1712.744141 0.765625)" xlink:href="#DejaVuSans-48"/>
      <use transform="translate(1777.324219 39.046875)scale(0.7)" xlink:href="#DejaVuSans-51"/>
      <use transform="translate(1824.594727 0.765625)" xlink:href="#DejaVuSans-32"/>
      <use transform="translate(1856.381836 0.765625)" xlink:href="#DejaVuSans-77"/>
      <use transform="translate(1942.661133 0.765625)" xlink:href="#DejaVuSans-112"/>
      <use transform="translate(2006.137695 0.765625)" xlink:href="#DejaVuSans-99"/>
      <use transform="translate(2062.075195 39.046875)scale(0.7)" xlink:href="#DejaVuSans-51"/>
      <use transform="translate(2109.345703 0.765625)" xlink:href="#DejaVuSans-41"/>
     </g>
    </g>
   </g>
   <g id="matplotlib.axis_2">
    <g id="ytick_1">
     <g id="line2d_6">
      <defs>
       <path d="M 0 0 
L -3.5 0 
" id="m7e52a2e2e4" style="stroke:#000000;stroke-width:0.8;"/>
      </defs>
      <g>
       <use style="stroke:#000000;stroke-width:0.8;" x="54" xlink:href="#m7e52a2e2e4" y="252"/>
      </g>
     </g>
     <g id="text_7">
      <!-- 0.00 -->
      <g transform="translate(24.734375 255.799219)scale(0.1 -0.1)">
       <use xlink:href="#DejaVuSans-48"/>
       <use x="63.623047" xlink:href="#DejaVuSans-46"/>
       <use x="95.410156" xlink:href="#DejaVuSans-48"/>
       <use x="159.033203" xlink:href="#DejaVuSans-48"/>
      </g>
     </g>
    </g>
    <g id="ytick_2">
     <g id="line2d_7">
      <g>
       <use style="stroke:#000000;stroke-width:0.8;" x="54" xlink:href="#m7e52a2e2e4" y="197.64"/>
      </g>
     </g>
     <g id="text_8">
      <!-- 0.25 -->
      <defs>
       <path d="M 19.1875 8.296875 
L 53.609375 8.296875 
L 53.609375 0 
L 7.328125 0 
L 7.328125 8.296875 
Q 12.9375 14.109375 22.625 23.890625 
Q 32.328125 33.6875 34.8125 36.53125 
Q 39.546875 41.84375 41.421875 45.53125 
Q 43.3125 49.21875 43.3125 52.78125 
Q 43.3125 58.59375 39.234375 62.25 
Q 35.15625 65.921875 28.609375 65.921875 
Q 23.96875 65.921875 18.8125 64.3125 
Q 13.671875 62.703125 7.8125 59.421875 
L 7.8125 69.390625 
Q 13.765625 71.78125 18.9375 73 
Q 24.125 74.21875 28.421875 74.21875 
Q 39.75 74.21875 46.484375 68.546875 
Q 53.21875 62.890625 53.21875 53.421875 
Q 53.21875 48.921875 51.53125 44.890625 
Q 49.859375 40.875 45.40625 35.40625 
Q 44.1875 33.984375 37.640625 27.21875 
Q 31.109375 20.453125 19.1875 8.296875 
z
" id="DejaVuSans-50"/>
       <path d="M 10.796875 72.90625 
L 49.515625 72.90625 
L 49.515625 64.59375 
L 19.828125 64.59375 
L 19.828125 46.734375 
Q 21.96875 47.46875 24.109375 47.828125 
Q 26.265625 48.1875 28.421875 48.1875 
Q 40.625 48.1875 47.75 41.5 
Q 54.890625 34.8125 54.890625 23.390625 
Q 54.890625 11.625 47.5625 5.09375 
Q 40.234375 -1.421875 26.90625 -1.421875 
Q 22.3125 -1.421875 17.546875 -0.640625 
Q 12.796875 0.140625 7.71875 1.703125 
L 7.71875 11.625 
Q 12.109375 9.234375 16.796875 8.0625 
Q 21.484375 6.890625 26.703125 6.890625 
Q 35.15625 6.890625 40.078125 11.328125 
Q 45.015625 15.765625 45.015625 23.390625 
Q 45.015625 31 40.078125 35.4375 
Q 35.15625 39.890625 26.703125 39.890625 
Q 22.75 39.890625 18.8125 39.015625 
Q 14.890625 38.140625 10.796875 36.28125 
z
" id="DejaVuSans-53"/>
      </defs>
      <g transform="translate(24.734375 201.439219)scale(0.1 -0.1)">
       <use xlink:href="#DejaVuSans-48"/>
       <use x="63.623047" xlink:href="#DejaVuSans-46"/>
       <use x="95.410156" xlink:href="#DejaVuSans-50"/>
       <use x="159.033203" xlink:href="#DejaVuSans-53"/>
      </g>
     </g>
    </g>
    <g id="ytick_3">
     <g id="line2d_8">
      <g>
       <use style="stroke:#000000;stroke-width:0.8;" x="54" xlink:href="#m7e52a2e2e4" y="143.28"/>
      </g>
     </g>
     <g id="text_9">
      <!-- 0.50 -->
      <g transform="translate(24.734375 147.079219)scale(0.1 -0.1)">
       <use xlink:href="#DejaVuSans-48"/>
       <use x="63.623047" xlink:href="#DejaVuSans-46"/>
       <use x="95.410156" xlink:href="#DejaVuSans-53"/>
       <use x="159.033203" xlink:href="#DejaVuSans-48"/>
      </g>
     </g>
    </g>
    <g id="ytick_4">
     <g id="line2d_9">
      <g>
       <use style="stroke:#000000;stroke-width:0.8;" x="54" xlink:href="#m7e52a2e2e4" y="88.92"/>
      </g>
     </g>
     <g id="text_10">
      <!-- 0.75 -->
      <defs>
       <path d="M 8.203125 72.90625 
L 55.078125 72.90625 
L 55.078125 68.703125 
L 28.609375 0 
L 18.3125 0 
L 43.21875 64.59375 
L 8.203125 64.59375 
z
" id="DejaVuSans-55"/>
      </defs>
      <g transform="translate(24.734375 92.719219)scale(0.1 -0.1)">
       <use xlink:href="#DejaVuSans-48"/>
       <use x="63.623047" xlink:href="#DejaVuSans-46"/>
       <use x="95.410156" xlink:href="#DejaVuSans-55"/>
       <use x="159.033203" xlink:href="#DejaVuSans-53"/>
      </g>
     </g>
    </g>
    <g id="ytick_5">
     <g id="line2d_10">
      <g>
       <use style="stroke:#000000;stroke-width:0.8;" x="54" xlink:href="#m7e52a2e2e4" y="34.56"/>
      </g>
     </g>
     <g id="text_11">
      <!-- 1.00 -->
      <g transform="translate(24.734375 38.359219)scale(0.1 -0.1)">
       <use xlink:href="#DejaVuSans-49"/>
       <use x="63.623047" xlink:href="#DejaVuSans-46"/>
       <use x="95.410156" xlink:href="#DejaVuSans-48"/>
       <use x="159.033203" xlink:href="#DejaVuSans-48"/>
      </g>
     </g>
    </g>
    <g id="text_12">
     <!-- Cumulative fraction of events -->
     <defs>
      <path d="M 64.40625 67.28125 
L 64.40625 56.890625 
Q 59.421875 61.53125 53.78125 63.8125 
Q 48.140625 66.109375 41.796875 66.109375 
Q 29.296875 66.109375 22.65625 58.46875 
Q 16.015625 50.828125 16.015625 36.375 
Q 16.015625 21.96875 22.65625 14.328125 
Q 29.296875 6.6875 41.796875 6.6875 
Q 48.140625 6.6875 53.78125 8.984375 
Q 59.421875 11.28125 64.40625 15.921875 
L 64.40625 5.609375 
Q 59.234375 2.09375 53.4375 0.328125 
Q 47.65625 -1.421875 41.21875 -1.421875 
Q 24.65625 -1.421875 15.125 8.703125 
Q 5.609375 18.84375 5.609375 36.375 
Q 5.609375 53.953125 15.125 64.078125 
Q 24.65625 74.21875 41.21875 74.21875 
Q 47.75 74.21875 53.53125 72.484375 
Q 59.328125 70.75 64.40625 67.28125 
z
" id="DejaVuSans-67"/>
      <path d="M 34.28125 27.484375 
Q 23.390625 27.484375 19.1875 25 
Q 14.984375 22.515625 14.984375 16.5 
Q 14.984375 11.71875 18.140625 8.90625 
Q 21.296875 6.109375 26.703125 6.109375 
Q 34.1875 6.109375 38.703125 11.40625 
Q 43.21875 16.703125 43.21875 25.484375 
L 43.21875 27.484375 
z
M 52.203125 31.203125 
L 52.203125 0 
L 43.21875 0 
L 43.21875 8.296875 
Q 40.140625 3.328125 35.546875 0.953125 
Q 30.953125 -1.421875 24.3125 -1.421875 
Q 15.921875 -1.421875 10.953125 3.296875 
Q 6 8.015625 6 15.921875 
Q 6 25.140625 12.171875 29.828125 
Q 18.359375 34.515625 30.609375 34.515625 
L 43.21875 34.515625 
L 43.21875 35.40625 
Q 43.21875 41.609375 39.140625 45 
Q 35.0625 48.390625 27.6875 48.390625 
Q 23 48.390625 18.546875 47.265625 
Q 14.109375 46.140625 10.015625 43.890625 
L 10.015625 52.203125 
Q 14.9375 54.109375 19.578125 55.046875 
Q 24.21875 56 28.609375 56 
Q 40.484375 56 46.34375 49.84375 
Q 52.203125 43.703125 52.203125 31.203125 
z
" id="DejaVuSans-97"/>
      <path d="M 18.3125 70.21875 
L 18.3125 54.6875 
L 36.8125 54.6875 
L 36.8125 47.703125 
L 18.3125 47.703125 
L 18.3125 18.015625 
Q 18.3125 11.328125 20.140625 9.421875 
Q 21.96875 7.515625 27.59375 7.515625 
L 36.8125 7.515625 
L 36.8125 0 
L 27.59375 0 
Q 17.1875 0 13.234375 3.875 
Q 9.28125 7.765625 9.28125 18.015625 
L 9.28125 47.703125 
L 2.6875 47.703125 
L 2.6875 54.6875 
L 9.28125 54.6875 
L 9.28125 70.21875 
z
" id="DejaVuSans-116"/>
      <path d="M 37.109375 75.984375 
L 37.109375 68.5 
L 28.515625 68.5 
Q 23.6875 68.5 21.796875 66.546875 
Q 19.921875 64.59375 19.921875 59.515625 
L 19.921875 54.6875 
L 34.71875 54.6875 
L 34.71875 47.703125 
L 19.921875 47.703125 
L 19.921875 0 
L 10.890625 0 
L 10.890625 47.703125 
L 2.296875 47.703125 
L 2.296875 54.6875 
L 10.890625 54.6875 
L 10.890625 58.5 
Q 10.890625 67.625 15.140625 71.796875 
Q 19.390625 75.984375 28.609375 75.984375 
z
" id="DejaVuSans-102"/>
      <path d="M 44.28125 53.078125 
L 44.28125 44.578125 
Q 40.484375 46.53125 36.375 47.5 
Q 32.28125 48.484375 27.875 48.484375 
Q 21.1875 48.484375 17.84375 46.4375 
Q 14.5 44.390625 14.5 40.28125 
Q 14.5 37.15625 16.890625 35.375 
Q 19.28125 33.59375 26.515625 31.984375 
L 29.59375 31.296875 
Q 39.15625 29.25 43.1875 25.515625 
Q 47.21875 21.78125 47.21875 15.09375 
Q 47.21875 7.46875 41.1875 3.015625 
Q 35.15625 -1.421875 24.609375 -1.421875 
Q 20.21875 -1.421875 15.453125 -0.5625 
Q 10.6875 0.296875 5.421875 2 
L 5.421875 11.28125 
Q 10.40625 8.6875 15.234375 7.390625 
Q 20.0625 6.109375 24.8125 6.109375 
Q 31.15625 6.109375 34.5625 8.28125 
Q 37.984375 10.453125 37.984375 14.40625 
Q 37.984375 18.0625 35.515625 20.015625 
Q 33.0625 21.96875 24.703125 23.78125 
L 21.578125 24.515625 
Q 13.234375 26.265625 9.515625 29.90625 
Q 5.8125 33.546875 5.8125 39.890625 
Q 5.8125 47.609375 11.28125 51.796875 
Q 16.75 56 26.8125 56 
Q 31.78125 56 36.171875 55.265625 
Q 40.578125 54.546875 44.28125 53.078125 
z
" id="DejaVuSans-115"/>
     </defs>
     <g transform="translate(18.654687 217.456563)rotate(-90)scale(0.1 -0.1)">
      <use xlink:href="#DejaVuSans-67"/>
      <use x="69.824219" xlink:href="#DejaVuSans-117"/>
      <use x="133.203125" xlink:href="#DejaVuSans-109"/>
      <use x="230.615234" xlink:href="#DejaVuSans-117"/>
      <use x="293.994141" xlink:href="#DejaVuSans-108"/>
      <use x="321.777344" xlink:href="#DejaVuSans-97"/>
      <use x="383.056641" xlink:href="#DejaVuSans-116"/>
      <use x="422.265625" xlink:href="#DejaVuSans-105"/>
      <use x="450.048828" xlink:href="#DejaVuSans-118"/>
      <use x="509.228516" xlink:href="#DejaVuSans-101"/>
      <use x="570.751953" xlink:href="#DejaVuSans-32"/>
      <use x="602.539062" xlink:href="#DejaVuSans-102"/>
      <use x="637.744141" xlink:href="#DejaVuSans-114"/>
      <use x="678.857422" xlink:href="#DejaVuSans-97"/>
      <use x="740.136719" xlink:href="#DejaVuSans-99"/>
      <use x="795.117188" xlink:href="#DejaVuSans-116"/>
      <use x="834.326172" xlink:href="#DejaVuSans-105"/>
      <use x="862.109375" xlink:href="#DejaVuSans-111"/>
      <use x="923.291016" xlink:href="#DejaVuSans-110"/>
      <use x="986.669922" xlink:href="#DejaVuSans-32"/>
      <use x="1018.457031" xlink:href="#DejaVuSans-111"/>
      <use x="1079.638672" xlink:href="#DejaVuSans-102"/>
      <use x="1114.84375" xlink:href="#DejaVuSans-32"/>
      <use x="1146.630859" xlink:href="#DejaVuSans-101"/>
      <use x="1208.154297" xlink:href="#DejaVuSans-118"/>
      <use x="1267.333984" xlink:href="#DejaVuSans-101"/>
      <use x="1328.857422" xlink:href="#DejaVuSans-110"/>
      <use x="1392.236328" xlink:href="#DejaVuSans-116"/>
      <use x="1431.445312" xlink:href="#DejaVuSans-115"/>
     </g>
    </g>
   </g>
   <g id="line2d_11">
    <path clip-path="url(#pafca7b41cd)" d="M 54 250.505796 
L 57.381818 250.283405 
L 60.763636 250.046678 
L 64.145455 249.793076 
L 67.527273 249.521337 
L 70.909091 249.231164 
L 74.290909 248.921634 
L 77.672727 248.589322 
L 81.054545 248.227281 
L 84.436364 247.825369 
L 87.818182 247.371525 
L 91.2 246.853158 
L 94.581818 246.257963 
L 97.963636 245.573931 
L 101.345455 244.788694 
L 104.727273 243.888615 
L 108.109091 242.858101 
L 111.490909 241.679753 
L 114.872727 240.335832 
L 118.254545 238.811191 
L 121.636364 237.097253 
L 125.018182 235.19612 
L 128.4 233.123472 
L 131.781818 230.908821 
L 135.163636 228.591896 
L 138.545455 226.214829 
L 141.927273 223.811184 
L 145.309091 221.394536 
L 148.690909 218.950282 
L 152.072727 216.434093 
L 155.454545 213.77854 
L 158.836364 210.906634 
L 162.218182 207.748501 
L 165.6 204.256126 
L 168.981818 200.411602 
L 172.363636 196.226367 
L 175.745455 191.731848 
L 179.127273 186.964844 
L 182.509091 181.952881 
L 185.890909 176.704731 
L 189.272727 171.209176 
L 192.654545 165.441618 
L 196.036364 159.374871 
L 199.418182 152.98903 
L 202.8 146.276489 
L 206.181818 139.241153 
L 209.563636 131.894124 
L 212.945455 124.250043 
L 216.327273 116.3281 
L 219.709091 108.159584 
L 223.090909 99.800611 
L 226.472727 91.3455 
L 229.854545 82.934837 
L 233.236364 74.753154 
L 236.618182 67.014134 
L 240 59.934944 
L 243.381818 53.704565 
L 246.763636 48.453382 
L 250.145455 44.232022 
L 253.527273 41.005849 
L 256.909091 38.66708 
L 260.290909 37.060574 
L 263.672727 36.014832 
L 267.054545 35.369017 
L 270.436364 34.98998 
L 273.818182 34.778223 
L 277.2 34.665538 
L 280.581818 34.608475 
L 283.963636 34.581054 
L 287.345455 34.568604 
L 290.727273 34.563292 
L 294.109091 34.561174 
L 297.490909 34.560388 
L 300.872727 34.560119 
L 304.254545 34.560034 
L 307.636364 34.560009 
L 311.018182 34.560002 
L 314.4 34.56 
L 317.781818 34.56 
L 321.163636 34.56 
L 324.545455 34.56 
L 327.927273 34.56 
L 331.309091 34.56 
L 334.690909 34.56 
L 338.072727 34.56 
L 341.454545 34.56 
L 344.836364 34.56 
L 348.218182 34.56 
L 351.6 34.56 
L 354.981818 34.56 
L 358.363636 34.56 
L 361.745455 34.56 
L 365.127273 34.56 
L 368.509091 34.56 
L 371.890909 34.56 
L 375.272727 34.56 
L 378.654545 34.56 
L 382.036364 34.56 
L 385.418182 34.56 
L 388.8 34.56 
" style="fill:none;stroke:#0173b2;stroke-linecap:square;stroke-width:1.5;"/>
   </g>
   <g id="line2d_12">
    <path clip-path="url(#pafca7b41cd)" d="M 54 251.835135 
L 57.381818 251.74794 
L 60.763636 251.637626 
L 64.145455 251.5076 
L 67.527273 251.363926 
L 70.909091 251.213751 
L 74.290909 251.06316 
L 77.672727 250.915163 
L 81.054545 250.768453 
L 84.436364 250.617365 
L 87.818182 250.453141 
L 91.2 250.266239 
L 94.581818 250.04909 
L 97.963636 249.798391 
L 101.345455 249.515952 
L 104.727273 249.20738 
L 108.109091 248.878603 
L 111.490909 248.531373 
L 114.872727 248.159595 
L 118.254545 247.748381 
L 121.636364 247.276588 
L 125.018182 246.721984 
L 128.4 246.066864 
L 131.781818 245.301592 
L 135.163636 244.424484 
L 138.545455 243.438165 
L 141.927273 242.344362 
L 145.309091 241.14003 
L 148.690909 239.817249 
L 152.072727 238.367369 
L 155.454545 236.787348 
L 158.836364 235.084424 
L 162.218182 233.275415 
L 165.6 231.379231 
L 168.981818 229.404851 
L 172.363636 227.339976 
L 175.745455 225.146207 
L 179.127273 222.764021 
L 182.509091 220.126355 
L 185.890909 217.175519 
L 189.272727 213.876886 
L 192.654545 210.224853 
L 196.036364 206.240485 
L 199.418182 201.963563 
L 202.8 197.442753 
L 206.181818 192.726479 
L 209.563636 187.85542 
L 212.945455 182.856667 
L 216.327273 177.739687 
L 219.709091 172.49461 
L 223.090909 167.093332 
L 226.472727 161.49345 
L 229.854545 155.644319 
L 233.236364 149.494086 
L 236.618182 142.996698 
L 240 136.118926 
L 243.381818 128.848539 
L 246.763636 121.204617 
L 250.145455 113.248496 
L 253.527273 105.090321 
L 256.909091 96.884707 
L 260.290909 88.812352 
L 263.672727 81.051772 
L 267.054545 73.751961 
L 270.436364 67.017433 
L 273.818182 60.910465 
L 277.2 55.46551 
L 280.581818 50.704502 
L 283.963636 46.643193 
L 287.345455 43.286106 
L 290.727273 40.615578 
L 294.109091 38.583443 
L 297.490909 37.111278 
L 300.872727 36.099583 
L 304.254545 35.441859 
L 307.636364 35.038246 
L 311.018182 34.804943 
L 314.4 34.678177 
L 317.781818 34.61357 
L 321.163636 34.582757 
L 324.545455 34.569036 
L 327.927273 34.563346 
L 331.309091 34.561152 
L 334.690909 34.560368 
L 338.072727 34.560109 
L 341.454545 34.56003 
L 344.836364 34.560008 
L 348.218182 34.560002 
L 351.6 34.56 
L 354.981818 34.56 
L 358.363636 34.56 
L 361.745455 34.56 
L 365.127273 34.56 
L 368.509091 34.56 
L 371.890909 34.56 
L 375.272727 34.56 
L 378.654545 34.56 
L 382.036364 34.56 
L 385.418182 34.56 
L 388.8 34.56 
" style="fill:none;stroke:#0173b2;stroke-dasharray:5.55,2.4;stroke-dashoffset:0;stroke-width:1.5;"/>
   </g>
   <g id="line2d_13">
    <path clip-path="url(#pafca7b41cd)" d="M 54 251.999916 
L 57.381818 251.999747 
L 60.763636 251.999301 
L 64.145455 251.998219 
L 67.527273 251.995808 
L 70.909091 251.990875 
L 74.290909 251.981597 
L 77.672727 251.965527 
L 81.054545 251.939867 
L 84.436364 251.902003 
L 87.818182 251.850231 
L 91.2 251.784392 
L 94.581818 251.706124 
L 97.963636 251.618539 
L 101.345455 251.525354 
L 104.727273 251.429751 
L 108.109091 251.333329 
L 111.490909 251.235507 
L 114.872727 251.133578 
L 118.254545 251.023466 
L 121.636364 250.90097 
L 125.018182 250.763075 
L 128.4 250.608811 
L 131.781818 250.439201 
L 135.163636 250.256263 
L 138.545455 250.061391 
L 141.927273 249.853785 
L 145.309091 249.629541 
L 148.690909 249.381703 
L 152.072727 249.10122 
L 155.454545 248.778393 
L 158.836364 248.404278 
L 162.218182 247.971542 
L 165.6 247.474459 
L 168.981818 246.90813 
L 172.363636 246.267359 
L 175.745455 245.545808 
L 179.127273 244.735852 
L 182.509091 243.829146 
L 185.890909 242.817588 
L 189.272727 241.694365 
L 192.654545 240.454947 
L 196.036364 239.097871 
L 199.418182 237.624874 
L 202.8 236.039648 
L 206.181818 234.344844 
L 209.563636 232.537981 
L 212.945455 230.608056 
L 216.327273 228.534892 
L 219.709091 226.292163 
L 223.090909 223.8532 
L 226.472727 221.1974 
L 229.854545 218.314973 
L 233.236364 215.208718 
L 236.618182 211.892517 
L 240 208.386775 
L 243.381818 204.711459 
L 246.763636 200.878151 
L 250.145455 196.883503 
L 253.527273 192.706709 
L 256.909091 188.31238 
L 260.290909 183.657925 
L 263.672727 178.702479 
L 267.054545 173.414019 
L 270.436364 167.772668 
L 273.818182 161.770627 
L 277.2 155.411166 
L 280.581818 148.709523 
L 283.963636 141.696996 
L 287.345455 134.426835 
L 290.727273 126.978339 
L 294.109091 119.455393 
L 297.490909 111.977701 
L 300.872727 104.666217 
L 304.254545 97.62694 
L 307.636364 90.938103 
L 311.018182 84.64457 
L 314.4 78.76075 
L 317.781818 73.280366 
L 321.163636 68.189259 
L 324.545455 63.4766 
L 327.927273 59.140947 
L 331.309091 55.189947 
L 334.690909 51.635164 
L 338.072727 48.485205 
L 341.454545 45.740285 
L 344.836364 43.389872 
L 348.218182 41.413207 
L 351.6 39.781424 
L 354.981818 38.460047 
L 358.363636 37.411307 
L 361.745455 36.596268 
L 365.127273 35.976803 
L 368.509091 35.517248 
L 371.890909 35.1855 
L 375.272727 34.953474 
L 378.654545 34.797107 
L 382.036364 34.69619 
L 385.418182 34.634205 
L 388.8 34.598182 
" style="fill:none;stroke:#0173b2;stroke-dasharray:1.5,2.475;stroke-dashoffset:0;stroke-width:1.5;"/>
   </g>
   <g id="line2d_14">
    <path clip-path="url(#pafca7b41cd)" d="M 54 248.601934 
L 57.381818 248.107086 
L 60.763636 247.57122 
L 64.145455 246.990969 
L 67.527273 246.365563 
L 70.909091 245.697596 
L 74.290909 244.992641 
L 77.672727 244.257827 
L 81.054545 243.499801 
L 84.436364 242.722611 
L 87.818182 241.92603 
L 91.2 241.104672 
L 94.581818 240.248047 
L 97.963636 239.341471 
L 101.345455 238.367538 
L 104.727273 237.307746 
L 108.109091 236.143884 
L 111.490909 234.858883 
L 114.872727 233.436966 
L 118.254545 231.863142 
L 121.636364 230.122363 
L 125.018182 228.198934 
L 128.4 226.076926 
L 131.781818 223.742082 
L 135.163636 221.185056 
L 138.545455 218.404985 
L 141.927273 215.411808 
L 145.309091 212.225897 
L 148.690909 208.87445 
L 152.072727 205.385437 
L 155.454545 201.78092 
L 158.836364 198.071878 
L 162.218182 194.25607 
L 165.6 190.319353 
L 168.981818 186.239825 
L 172.363636 181.993477 
L 175.745455 177.559865 
L 179.127273 172.926335 
L 182.509091 168.089717 
L 185.890909 163.054942 
L 189.272727 157.831002 
L 192.654545 152.42568 
L 196.036364 146.841066 
L 199.418182 141.071552 
L 202.8 135.104854 
L 206.181818 128.925214 
L 209.563636 122.517434 
L 212.945455 115.870954 
L 216.327273 108.984514 
L 219.709091 101.872752 
L 223.090909 94.575325 
L 226.472727 87.166991 
L 229.854545 79.764623 
L 233.236364 72.526148 
L 236.618182 65.638078 
L 240 59.292167 
L 243.381818 53.656217 
L 246.763636 48.846944 
L 250.145455 44.91265 
L 253.527273 41.830306 
L 256.909091 39.516863 
L 260.290909 37.850331 
L 263.672727 36.693894 
L 267.054545 35.916726 
L 270.436364 35.407579 
L 273.818182 35.080311 
L 277.2 34.873028 
L 280.581818 34.743616 
L 283.963636 34.664314 
L 287.345455 34.616988 
L 290.727273 34.589738 
L 294.109091 34.574738 
L 297.490909 34.566905 
L 300.872727 34.563047 
L 304.254545 34.561263 
L 307.636364 34.560491 
L 311.018182 34.560178 
L 314.4 34.560061 
L 317.781818 34.560019 
L 321.163636 34.560006 
L 324.545455 34.560002 
L 327.927273 34.56 
L 331.309091 34.56 
L 334.690909 34.56 
L 338.072727 34.56 
L 341.454545 34.56 
L 344.836364 34.56 
L 348.218182 34.56 
L 351.6 34.56 
L 354.981818 34.56 
L 358.363636 34.56 
L 361.745455 34.56 
L 365.127273 34.56 
L 368.509091 34.56 
L 371.890909 34.56 
L 375.272727 34.56 
L 378.654545 34.56 
L 382.036364 34.56 
L 385.418182 34.56 
L 388.8 34.56 
" style="fill:none;stroke:#de8f05;stroke-linecap:square;stroke-width:1.5;"/>
   </g>
   <g id="line2d_15">
    <path clip-path="url(#pafca7b41cd)" d="M 54 251.415107 
L 57.381818 251.250063 
L 60.763636 251.039931 
L 64.145455 250.781874 
L 67.527273 250.476625 
L 70.909091 250.128468 
L 74.290909 249.744524 
L 77.672727 249.333465 
L 81.054545 248.903938 
L 84.436364 248.463091 
L 87.818182 248.015517 
L 91.2 247.562808 
L 94.581818 247.103643 
L 97.963636 246.63422 
L 101.345455 246.148799 
L 104.727273 245.640201 
L 108.109091 245.10029 
L 111.490909 244.520518 
L 114.872727 243.892535 
L 118.254545 243.208732 
L 121.636364 242.462441 
L 125.018182 241.647551 
L 128.4 240.757551 
L 131.781818 239.784311 
L 135.163636 238.717182 
L 138.545455 237.542959 
L 141.927273 236.246885 
L 145.309091 234.814454 
L 148.690909 233.233321 
L 152.072727 231.494546 
L 155.454545 229.5926 
L 158.836364 227.524026 
L 162.218182 225.285178 
L 165.6 222.869918 
L 168.981818 220.268305 
L 172.363636 217.467073 
L 175.745455 214.452055 
L 179.127273 211.211831 
L 182.509091 207.741264 
L 185.890909 204.0435 
L 189.272727 200.129672 
L 192.654545 196.016635 
L 196.036364 191.724039 
L 199.418182 187.272269 
L 202.8 182.682192 
L 206.181818 177.976361 
L 209.563636 173.180202 
L 212.945455 168.321337 
L 216.327273 163.425847 
L 219.709091 158.511825 
L 223.090909 153.582129 
L 226.472727 148.61915 
L 229.854545 143.584122 
L 233.236364 138.422113 
L 236.618182 133.071931 
L 240 127.478543 
L 243.381818 121.604897 
L 246.763636 115.440407 
L 250.145455 109.004649 
L 253.527273 102.346381 
L 256.909091 95.539339 
L 260.290909 88.676788 
L 263.672727 81.866375 
L 267.054545 75.225653 
L 270.436364 68.877348 
L 273.818182 62.942832 
L 277.2 57.532849 
L 280.581818 52.736202 
L 283.963636 48.608884 
L 287.345455 45.167006 
L 290.727273 42.386109 
L 294.109091 40.207389 
L 297.490909 38.549046 
L 300.872727 37.319467 
L 304.254545 36.428912 
L 307.636364 35.797517 
L 311.018182 35.359053 
L 314.4 35.061263 
L 317.781818 34.864168 
L 321.163636 34.737695 
L 324.545455 34.659482 
L 327.927273 34.613144 
L 331.309091 34.586987 
L 334.690909 34.572984 
L 338.072727 34.565902 
L 341.454545 34.562529 
L 344.836364 34.56102 
L 348.218182 34.560386 
L 351.6 34.560137 
L 354.981818 34.560046 
L 358.363636 34.560014 
L 361.745455 34.560004 
L 365.127273 34.560001 
L 368.509091 34.56 
L 371.890909 34.56 
L 375.272727 34.56 
L 378.654545 34.56 
L 382.036364 34.56 
L 385.418182 34.56 
L 388.8 34.56 
" style="fill:none;stroke:#de8f05;stroke-dasharray:5.55,2.4;stroke-dashoffset:0;stroke-width:1.5;"/>
   </g>
   <g id="line2d_16">
    <path clip-path="url(#pafca7b41cd)" d="M 54 251.995973 
L 57.381818 251.992175 
L 60.763636 251.9856 
L 64.145455 251.974838 
L 67.527273 251.958114 
L 70.909091 251.933342 
L 74.290909 251.898223 
L 77.672727 251.850381 
L 81.054545 251.787543 
L 84.436364 251.707745 
L 87.818182 251.609562 
L 91.2 251.492271 
L 94.581818 251.355856 
L 97.963636 251.200732 
L 101.345455 251.027206 
L 104.727273 250.834795 
L 108.109091 250.621707 
L 111.490909 250.384802 
L 114.872727 250.120213 
L 118.254545 249.824528 
L 121.636364 249.496143 
L 125.018182 249.136271 
L 128.4 248.749142 
L 131.781818 248.34124 
L 135.163636 247.919742 
L 138.545455 247.490623 
L 141.927273 247.056913 
L 145.309091 246.617555 
L 148.690909 246.167069 
L 152.072727 245.696075 
L 155.454545 245.192516 
L 158.836364 244.643282 
L 162.218182 244.035799 
L 165.6 243.359133 
L 168.981818 242.604325 
L 172.363636 241.763977 
L 175.745455 240.831497 
L 179.127273 239.800514 
L 182.509091 238.664827 
L 185.890909 237.418874 
L 189.272727 236.058294 
L 192.654545 234.580119 
L 196.036364 232.982295 
L 199.418182 231.262657 
L 202.8 229.417737 
L 206.181818 227.441868 
L 209.563636 225.326895 
L 212.945455 223.062525 
L 216.327273 220.637129 
L 219.709091 218.038668 
L 223.090909 215.25541 
L 226.472727 212.276337 
L 229.854545 209.091394 
L 233.236364 205.692006 
L 236.618182 202.072172 
L 240 198.23012 
L 243.381818 194.169978 
L 246.763636 189.902586 
L 250.145455 185.444724 
L 253.527273 180.816589 
L 256.909091 176.038067 
L 260.290909 171.124899 
L 263.672727 166.085935 
L 267.054545 160.922367 
L 270.436364 155.62915 
L 273.818182 150.198196 
L 277.2 144.622373 
L 280.581818 138.899256 
L 283.963636 133.033804 
L 287.345455 127.039654 
L 290.727273 120.939247 
L 294.109091 114.763301 
L 297.490909 108.550161 
L 300.872727 102.345274 
L 304.254545 96.200604 
L 307.636364 90.173498 
L 311.018182 84.324475 
L 314.4 78.713811 
L 317.781818 73.39733 
L 321.163636 68.422289 
L 324.545455 63.824316 
L 327.927273 59.625932 
L 331.309091 55.836623 
L 334.690909 52.453983 
L 338.072727 49.465423 
L 341.454545 46.850207 
L 344.836364 44.581835 
L 348.218182 42.630786 
L 351.6 40.967302 
L 354.981818 39.563609 
L 358.363636 38.394911 
L 361.745455 37.43893 
L 365.127273 36.674377 
L 368.509091 36.079234 
L 371.890909 35.629756 
L 375.272727 35.300709 
L 378.654545 35.06673 
L 382.036364 34.904198 
L 385.418182 34.792909 
L 388.8 34.717002 
" style="fill:none;stroke:#de8f05;stroke-dasharray:1.5,2.475;stroke-dashoffset:0;stroke-width:1.5;"/>
   </g>
   <g id="line2d_17">
    <path clip-path="url(#pafca7b41cd)" d="M 54 249.664269 
L 57.381818 249.267237 
L 60.763636 248.828299 
L 64.145455 248.345798 
L 67.527273 247.817957 
L 70.909091 247.243305 
L 74.290909 246.620762 
L 77.672727 245.94943 
L 81.054545 245.228469 
L 84.436364 244.457425 
L 87.818182 243.63709 
L 91.2 242.770447 
L 94.581818 241.86299 
L 97.963636 240.921775 
L 101.345455 239.953079 
L 104.727273 238.959139 
L 108.109091 237.934839 
L 111.490909 236.865292 
L 114.872727 235.725059 
L 118.254545 234.479387 
L 121.636364 233.087475 
L 125.018182 231.507246 
L 128.4 229.700579 
L 131.781818 227.637482 
L 135.163636 225.297786 
L 138.545455 222.669689 
L 141.927273 219.745899 
L 145.309091 216.519409 
L 148.690909 212.981363 
L 152.072727 209.122488 
L 155.454545 204.937615 
L 158.836364 200.430869 
L 162.218182 195.618492 
L 165.6 190.52738 
L 168.981818 185.189752 
L 172.363636 179.636642 
L 175.745455 173.893704 
L 179.127273 167.981732 
L 182.509091 161.921769 
L 185.890909 155.742149 
L 189.272727 149.483543 
L 192.654545 143.198843 
L 196.036364 136.947116 
L 199.418182 130.783714 
L 202.8 124.750443 
L 206.181818 118.869646 
L 209.563636 113.144233 
L 212.945455 107.563145 
L 216.327273 102.109735 
L 219.709091 96.76988 
L 223.090909 91.537432 
L 226.472727 86.416086 
L 229.854545 81.418185 
L 233.236364 76.561743 
L 236.618182 71.867135 
L 240 67.354652 
L 243.381818 63.043738 
L 246.763636 58.954205 
L 250.145455 55.108906 
L 253.527273 51.536447 
L 256.909091 48.271885 
L 260.290909 45.353758 
L 263.672727 42.817223 
L 267.054545 40.68513 
L 270.436364 38.960192 
L 273.818182 37.621392 
L 277.2 36.626066 
L 280.581818 35.916887 
L 283.963636 35.431197 
L 287.345455 35.109695 
L 290.727273 34.902368 
L 294.109091 34.770927 
L 297.490909 34.688357 
L 300.872727 34.63677 
L 304.254545 34.604791 
L 307.636364 34.58528 
L 311.018182 34.573691 
L 314.4 34.567066 
L 317.781818 34.563456 
L 321.163636 34.561595 
L 324.545455 34.560692 
L 327.927273 34.560282 
L 331.309091 34.560108 
L 334.690909 34.560038 
L 338.072727 34.560013 
L 341.454545 34.560004 
L 344.836364 34.560001 
L 348.218182 34.56 
L 351.6 34.56 
L 354.981818 34.56 
L 358.363636 34.56 
L 361.745455 34.56 
L 365.127273 34.56 
L 368.509091 34.56 
L 371.890909 34.56 
L 375.272727 34.56 
L 378.654545 34.56 
L 382.036364 34.56 
L 385.418182 34.56 
L 388.8 34.56 
" style="fill:none;stroke:#029e73;stroke-linecap:square;stroke-width:1.5;"/>
   </g>
   <g id="line2d_18">
    <path clip-path="url(#pafca7b41cd)" d="M 54 251.694622 
L 57.381818 251.625952 
L 60.763636 251.534515 
L 64.145455 251.412371 
L 67.527273 251.252463 
L 70.909091 251.049874 
L 74.290909 250.802662 
L 77.672727 250.512013 
L 81.054545 250.181666 
L 84.436364 249.816818 
L 87.818182 249.422919 
L 91.2 249.004734 
L 94.581818 248.565863 
L 97.963636 248.108623 
L 101.345455 247.634002 
L 104.727273 247.14141 
L 108.109091 246.6282 
L 111.490909 246.089183 
L 114.872727 245.516558 
L 118.254545 244.90057 
L 121.636364 244.230943 
L 125.018182 243.498695 
L 128.4 242.697665 
L 131.781818 241.825014 
L 135.163636 240.880288 
L 138.545455 239.863241 
L 141.927273 238.771205 
L 145.309091 237.597015 
L 148.690909 236.328209 
L 152.072727 234.947499 
L 155.454545 233.433976 
L 158.836364 231.764344 
L 162.218182 229.913893 
L 165.6 227.857376 
L 168.981818 225.570188 
L 172.363636 223.02999 
L 175.745455 220.218448 
L 179.127273 217.122378 
L 182.509091 213.733664 
L 185.890909 210.047803 
L 189.272727 206.061654 
L 192.654545 201.771493 
L 196.036364 197.172494 
L 199.418182 192.260206 
L 202.8 187.033734 
L 206.181818 181.499646 
L 209.563636 175.675433 
L 212.945455 169.591639 
L 216.327273 163.292255 
L 219.709091 156.833354 
L 223.090909 150.280048 
L 226.472727 143.701892 
L 229.854545 137.167032 
L 233.236364 130.735799 
L 236.618182 124.454959 
L 240 118.354013 
L 243.381818 112.444565 
L 246.763636 106.722809 
L 250.145455 101.174222 
L 253.527273 95.779066 
L 256.909091 90.517636 
L 260.290909 85.37485 
L 263.672727 80.344239 
L 267.054545 75.431203 
L 270.436364 70.654961 
L 273.818182 66.048398 
L 277.2 61.655414 
L 280.581818 57.52611 
L 283.963636 53.71077 
L 287.345455 50.25371 
L 290.727273 47.187891 
L 294.109091 44.530874 
L 297.490909 42.282667 
L 300.872727 40.425881 
L 304.254545 38.928335 
L 307.636364 37.747615 
L 311.018182 36.83651 
L 314.4 36.147997 
L 317.781818 35.638776 
L 321.163636 35.27103 
L 324.545455 35.012741 
L 327.927273 34.837231 
L 331.309091 34.722519 
L 334.690909 34.650822 
L 338.072727 34.608198 
L 341.454545 34.584207 
L 344.836364 34.571472 
L 348.218182 34.565117 
L 351.6 34.562143 
L 354.981818 34.560842 
L 358.363636 34.560309 
L 361.745455 34.560106 
L 365.127273 34.560034 
L 368.509091 34.56001 
L 371.890909 34.560003 
L 375.272727 34.560001 
L 378.654545 34.56 
L 382.036364 34.56 
L 385.418182 34.56 
L 388.8 34.56 
" style="fill:none;stroke:#029e73;stroke-dasharray:5.55,2.4;stroke-dashoffset:0;stroke-width:1.5;"/>
   </g>
   <g id="line2d_19">
    <path clip-path="url(#pafca7b41cd)" d="M 54 251.953583 
L 57.381818 251.935017 
L 60.763636 251.913486 
L 64.145455 251.889469 
L 67.527273 251.862989 
L 70.909091 251.833226 
L 74.290909 251.798378 
L 77.672727 251.755854 
L 81.054545 251.702737 
L 84.436364 251.636359 
L 87.818182 251.554809 
L 91.2 251.457246 
L 94.581818 251.343983 
L 97.963636 251.216291 
L 101.345455 251.075954 
L 104.727273 250.924591 
L 108.109091 250.76292 
L 111.490909 250.590204 
L 114.872727 250.404131 
L 118.254545 250.201198 
L 121.636364 249.977447 
L 125.018182 249.729204 
L 128.4 249.453535 
L 131.781818 249.148304 
L 135.163636 248.812012 
L 138.545455 248.44367 
L 141.927273 248.042902 
L 145.309091 247.610223 
L 148.690909 247.147218 
L 152.072727 246.656381 
L 155.454545 246.140481 
L 158.836364 245.601636 
L 162.218182 245.040377 
L 165.6 244.454898 
L 168.981818 243.840473 
L 172.363636 243.188844 
L 175.745455 242.487496 
L 179.127273 241.719143 
L 182.509091 240.862078 
L 185.890909 239.891972 
L 189.272727 238.784992 
L 192.654545 237.52115 
L 196.036364 236.08615 
L 199.418182 234.47046 
L 202.8 232.665704 
L 206.181818 230.66012 
L 209.563636 228.435566 
L 212.945455 225.967852 
L 216.327273 223.230408 
L 219.709091 220.199601 
L 223.090909 216.859396 
L 226.472727 213.203885 
L 229.854545 209.237667 
L 233.236364 204.975107 
L 236.618182 200.439506 
L 240 195.662268 
L 243.381818 190.681328 
L 246.763636 185.537963 
L 250.145455 180.271933 
L 253.527273 174.916077 
L 256.909091 169.492176 
L 260.290909 164.009663 
L 263.672727 158.467678 
L 267.054545 152.859714 
L 270.436364 147.179206 
L 273.818182 141.424444 
L 277.2 135.601769 
L 280.581818 129.726837 
L 283.963636 123.824183 
L 287.345455 117.925444 
L 290.727273 112.066594 
L 294.109091 106.284823 
L 297.490909 100.61593 
L 300.872727 95.093003 
L 304.254545 89.746451 
L 307.636364 84.604517 
L 311.018182 79.693026 
L 314.4 75.03367 
L 317.781818 70.641288 
L 321.163636 66.521696 
L 324.545455 62.671802 
L 327.927273 59.082854 
L 331.309091 55.745963 
L 334.690909 52.657625 
L 338.072727 49.822629 
L 341.454545 47.252869 
L 344.836364 44.962562 
L 348.218182 42.961986 
L 351.6 41.252338 
L 354.981818 39.8234 
L 358.363636 38.654243 
L 361.745455 37.71606 
L 365.127273 36.975812 
L 368.509091 36.39966 
L 371.890909 35.955653 
L 375.272727 35.615522 
L 378.654545 35.355606 
L 382.036364 35.157006 
L 385.418182 35.005134 
L 388.8 34.888946 
" style="fill:none;stroke:#029e73;stroke-dasharray:1.5,2.475;stroke-dashoffset:0;stroke-width:1.5;"/>
   </g>
   <g id="line2d_20">
    <path clip-path="url(#pafca7b41cd)" d="M 270.651803 56.304 
L 270.651803 34.56 
" style="fill:none;stroke:#000000;stroke-linecap:square;stroke-width:1.5;"/>
   </g>
   <g id="line2d_21">
    <path clip-path="url(#pafca7b41cd)" d="M 103.796449 56.304 
L 103.796449 34.56 
" style="fill:none;stroke:#000000;stroke-linecap:square;stroke-width:1.5;"/>
   </g>
   <g id="patch_3">
    <path d="M 54 252 
L 54 34.56 
" style="fill:none;stroke:#000000;stroke-linecap:square;stroke-linejoin:miter;stroke-width:0.8;"/>
   </g>
   <g id="patch_4">
    <path d="M 388.8 252 
L 388.8 34.56 
" style="fill:none;stroke:#000000;stroke-linecap:square;stroke-linejoin:miter;stroke-width:0.8;"/>
   </g>
   <g id="patch_5">
    <path d="M 54 252 
L 388.8 252 
" style="fill:none;stroke:#000000;stroke-linecap:square;stroke-linejoin:miter;stroke-width:0.8;"/>
   </g>
   <g id="patch_6">
    <path d="M 54 34.56 
L 388.8 34.56 
" style="fill:none;stroke:#000000;stroke-linecap:square;stroke-linejoin:miter;stroke-width:0.8;"/>
   </g>
   <g id="text_13">
    <g id="patch_7">
     <path d="M 272.151803 54.271063 
L 335.96274 54.271063 
L 335.96274 36.592938 
L 272.151803 36.592938 
z
" style="fill:#ffffff;fill-opacity:0.9;stroke:#ffffff;stroke-linejoin:miter;stroke-opacity:0.9;"/>
    </g>
    <!-- GW170818 -->
    <defs>
     <path d="M 59.515625 10.40625 
L 59.515625 29.984375 
L 43.40625 29.984375 
L 43.40625 38.09375 
L 69.28125 38.09375 
L 69.28125 6.78125 
Q 63.578125 2.734375 56.6875 0.65625 
Q 49.8125 -1.421875 42 -1.421875 
Q 24.90625 -1.421875 15.25 8.5625 
Q 5.609375 18.5625 5.609375 36.375 
Q 5.609375 54.25 15.25 64.234375 
Q 24.90625 74.21875 42 74.21875 
Q 49.125 74.21875 55.546875 72.453125 
Q 61.96875 70.703125 67.390625 67.28125 
L 67.390625 56.78125 
Q 61.921875 61.421875 55.765625 63.765625 
Q 49.609375 66.109375 42.828125 66.109375 
Q 29.4375 66.109375 22.71875 58.640625 
Q 16.015625 51.171875 16.015625 36.375 
Q 16.015625 21.625 22.71875 14.15625 
Q 29.4375 6.6875 42.828125 6.6875 
Q 48.046875 6.6875 52.140625 7.59375 
Q 56.25 8.5 59.515625 10.40625 
z
" id="DejaVuSans-71"/>
     <path d="M 3.328125 72.90625 
L 13.28125 72.90625 
L 28.609375 11.28125 
L 43.890625 72.90625 
L 54.984375 72.90625 
L 70.3125 11.28125 
L 85.59375 72.90625 
L 95.609375 72.90625 
L 77.296875 0 
L 64.890625 0 
L 49.515625 63.28125 
L 33.984375 0 
L 21.578125 0 
z
" id="DejaVuSans-87"/>
     <path d="M 31.78125 34.625 
Q 24.75 34.625 20.71875 30.859375 
Q 16.703125 27.09375 16.703125 20.515625 
Q 16.703125 13.921875 20.71875 10.15625 
Q 24.75 6.390625 31.78125 6.390625 
Q 38.8125 6.390625 42.859375 10.171875 
Q 46.921875 13.96875 46.921875 20.515625 
Q 46.921875 27.09375 42.890625 30.859375 
Q 38.875 34.625 31.78125 34.625 
z
M 21.921875 38.8125 
Q 15.578125 40.375 12.03125 44.71875 
Q 8.5 49.078125 8.5 55.328125 
Q 8.5 64.0625 14.71875 69.140625 
Q 20.953125 74.21875 31.78125 74.21875 
Q 42.671875 74.21875 48.875 69.140625 
Q 55.078125 64.0625 55.078125 55.328125 
Q 55.078125 49.078125 51.53125 44.71875 
Q 48 40.375 41.703125 38.8125 
Q 48.828125 37.15625 52.796875 32.3125 
Q 56.78125 27.484375 56.78125 20.515625 
Q 56.78125 9.90625 50.3125 4.234375 
Q 43.84375 -1.421875 31.78125 -1.421875 
Q 19.734375 -1.421875 13.25 4.234375 
Q 6.78125 9.90625 6.78125 20.515625 
Q 6.78125 27.484375 10.78125 32.3125 
Q 14.796875 37.15625 21.921875 38.8125 
z
M 18.3125 54.390625 
Q 18.3125 48.734375 21.84375 45.5625 
Q 25.390625 42.390625 31.78125 42.390625 
Q 38.140625 42.390625 41.71875 45.5625 
Q 45.3125 48.734375 45.3125 54.390625 
Q 45.3125 60.0625 41.71875 63.234375 
Q 38.140625 66.40625 31.78125 66.40625 
Q 25.390625 66.40625 21.84375 63.234375 
Q 18.3125 60.0625 18.3125 54.390625 
z
" id="DejaVuSans-56"/>
    </defs>
    <g transform="translate(276.151803 48.191375)scale(0.1 -0.1)">
     <use xlink:href="#DejaVuSans-71"/>
     <use x="77.490234" xlink:href="#DejaVuSans-87"/>
     <use x="176.367188" xlink:href="#DejaVuSans-49"/>
     <use x="239.990234" xlink:href="#DejaVuSans-55"/>
     <use x="303.613281" xlink:href="#DejaVuSans-48"/>
     <use x="367.236328" xlink:href="#DejaVuSans-56"/>
     <use x="430.859375" xlink:href="#DejaVuSans-49"/>
     <use x="494.482422" xlink:href="#DejaVuSans-56"/>
    </g>
   </g>
   <g id="text_14">
    <g id="patch_8">
     <path d="M 105.296449 54.271063 
L 169.107387 54.271063 
L 169.107387 36.592938 
L 105.296449 36.592938 
z
" style="fill:#ffffff;fill-opacity:0.9;stroke:#ffffff;stroke-linejoin:miter;stroke-opacity:0.9;"/>
    </g>
    <!-- GW170817 -->
    <g transform="translate(109.296449 48.191375)scale(0.1 -0.1)">
     <use xlink:href="#DejaVuSans-71"/>
     <use x="77.490234" xlink:href="#DejaVuSans-87"/>
     <use x="176.367188" xlink:href="#DejaVuSans-49"/>
     <use x="239.990234" xlink:href="#DejaVuSans-55"/>
     <use x="303.613281" xlink:href="#DejaVuSans-48"/>
     <use x="367.236328" xlink:href="#DejaVuSans-56"/>
     <use x="430.859375" xlink:href="#DejaVuSans-49"/>
     <use x="494.482422" xlink:href="#DejaVuSans-55"/>
    </g>
   </g>
   <g id="legend_1">
    <g id="patch_9">
     <path d="M 305.723438 247 
L 381.8 247 
Q 383.8 247 383.8 245 
L 383.8 157.93125 
Q 383.8 155.93125 381.8 155.93125 
L 305.723438 155.93125 
Q 303.723438 155.93125 303.723438 157.93125 
L 303.723438 245 
Q 303.723438 247 305.723438 247 
z
" style="fill:#ffffff;opacity:0.8;stroke:#cccccc;stroke-linejoin:miter;"/>
    </g>
    <g id="line2d_22">
     <path d="M 307.723438 164.029688 
L 327.723438 164.029688 
" style="fill:none;stroke:#000000;stroke-linecap:square;stroke-width:1.5;"/>
    </g>
    <g id="line2d_23"/>
    <g id="text_15">
     <!-- BNS -->
     <defs>
      <path d="M 19.671875 34.8125 
L 19.671875 8.109375 
L 35.5 8.109375 
Q 43.453125 8.109375 47.28125 11.40625 
Q 51.125 14.703125 51.125 21.484375 
Q 51.125 28.328125 47.28125 31.5625 
Q 43.453125 34.8125 35.5 34.8125 
z
M 19.671875 64.796875 
L 19.671875 42.828125 
L 34.28125 42.828125 
Q 41.5 42.828125 45.03125 45.53125 
Q 48.578125 48.25 48.578125 53.8125 
Q 48.578125 59.328125 45.03125 62.0625 
Q 41.5 64.796875 34.28125 64.796875 
z
M 9.8125 72.90625 
L 35.015625 72.90625 
Q 46.296875 72.90625 52.390625 68.21875 
Q 58.5 63.53125 58.5 54.890625 
Q 58.5 48.1875 55.375 44.234375 
Q 52.25 40.28125 46.1875 39.3125 
Q 53.46875 37.75 57.5 32.78125 
Q 61.53125 27.828125 61.53125 20.40625 
Q 61.53125 10.640625 54.890625 5.3125 
Q 48.25 0 35.984375 0 
L 9.8125 0 
z
" id="DejaVuSans-66"/>
      <path d="M 9.8125 72.90625 
L 23.09375 72.90625 
L 55.421875 11.921875 
L 55.421875 72.90625 
L 64.984375 72.90625 
L 64.984375 0 
L 51.703125 0 
L 19.390625 60.984375 
L 19.390625 0 
L 9.8125 0 
z
" id="DejaVuSans-78"/>
      <path d="M 53.515625 70.515625 
L 53.515625 60.890625 
Q 47.90625 63.578125 42.921875 64.890625 
Q 37.9375 66.21875 33.296875 66.21875 
Q 25.25 66.21875 20.875 63.09375 
Q 16.5 59.96875 16.5 54.203125 
Q 16.5 49.359375 19.40625 46.890625 
Q 22.3125 44.4375 30.421875 42.921875 
L 36.375 41.703125 
Q 47.40625 39.59375 52.65625 34.296875 
Q 57.90625 29 57.90625 20.125 
Q 57.90625 9.515625 50.796875 4.046875 
Q 43.703125 -1.421875 29.984375 -1.421875 
Q 24.8125 -1.421875 18.96875 -0.25 
Q 13.140625 0.921875 6.890625 3.21875 
L 6.890625 13.375 
Q 12.890625 10.015625 18.65625 8.296875 
Q 24.421875 6.59375 29.984375 6.59375 
Q 38.421875 6.59375 43.015625 9.90625 
Q 47.609375 13.234375 47.609375 19.390625 
Q 47.609375 24.75 44.3125 27.78125 
Q 41.015625 30.8125 33.5 32.328125 
L 27.484375 33.5 
Q 16.453125 35.6875 11.515625 40.375 
Q 6.59375 45.0625 6.59375 53.421875 
Q 6.59375 63.09375 13.40625 68.65625 
Q 20.21875 74.21875 32.171875 74.21875 
Q 37.3125 74.21875 42.625 73.28125 
Q 47.953125 72.359375 53.515625 70.515625 
z
" id="DejaVuSans-83"/>
     </defs>
     <g transform="translate(335.723438 167.529688)scale(0.1 -0.1)">
      <use xlink:href="#DejaVuSans-66"/>
      <use x="68.603516" xlink:href="#DejaVuSans-78"/>
      <use x="143.408203" xlink:href="#DejaVuSans-83"/>
     </g>
    </g>
    <g id="line2d_24">
     <path d="M 307.723438 178.707813 
L 327.723438 178.707813 
" style="fill:none;stroke:#000000;stroke-dasharray:5.55,2.4;stroke-dashoffset:0;stroke-width:1.5;"/>
    </g>
    <g id="line2d_25"/>
    <g id="text_16">
     <!-- NSBH -->
     <defs>
      <path d="M 9.8125 72.90625 
L 19.671875 72.90625 
L 19.671875 43.015625 
L 55.515625 43.015625 
L 55.515625 72.90625 
L 65.375 72.90625 
L 65.375 0 
L 55.515625 0 
L 55.515625 34.71875 
L 19.671875 34.71875 
L 19.671875 0 
L 9.8125 0 
z
" id="DejaVuSans-72"/>
     </defs>
     <g transform="translate(335.723438 182.207813)scale(0.1 -0.1)">
      <use xlink:href="#DejaVuSans-78"/>
      <use x="74.804688" xlink:href="#DejaVuSans-83"/>
      <use x="138.28125" xlink:href="#DejaVuSans-66"/>
      <use x="206.884766" xlink:href="#DejaVuSans-72"/>
     </g>
    </g>
    <g id="line2d_26">
     <path d="M 307.723438 193.385938 
L 327.723438 193.385938 
" style="fill:none;stroke:#000000;stroke-dasharray:1.5,2.475;stroke-dashoffset:0;stroke-width:1.5;"/>
    </g>
    <g id="line2d_27"/>
    <g id="text_17">
     <!-- BBH -->
     <g transform="translate(335.723438 196.885938)scale(0.1 -0.1)">
      <use xlink:href="#DejaVuSans-66"/>
      <use x="68.603516" xlink:href="#DejaVuSans-66"/>
      <use x="137.207031" xlink:href="#DejaVuSans-72"/>
     </g>
    </g>
    <g id="patch_10">
     <path d="M 307.723438 211.564063 
L 327.723438 211.564063 
L 327.723438 204.564063 
L 307.723438 204.564063 
z
" style="fill:#0173b2;"/>
    </g>
    <g id="text_18">
     <!-- O3/HLV -->
     <defs>
      <path d="M 39.40625 66.21875 
Q 28.65625 66.21875 22.328125 58.203125 
Q 16.015625 50.203125 16.015625 36.375 
Q 16.015625 22.609375 22.328125 14.59375 
Q 28.65625 6.59375 39.40625 6.59375 
Q 50.140625 6.59375 56.421875 14.59375 
Q 62.703125 22.609375 62.703125 36.375 
Q 62.703125 50.203125 56.421875 58.203125 
Q 50.140625 66.21875 39.40625 66.21875 
z
M 39.40625 74.21875 
Q 54.734375 74.21875 63.90625 63.9375 
Q 73.09375 53.65625 73.09375 36.375 
Q 73.09375 19.140625 63.90625 8.859375 
Q 54.734375 -1.421875 39.40625 -1.421875 
Q 24.03125 -1.421875 14.8125 8.828125 
Q 5.609375 19.09375 5.609375 36.375 
Q 5.609375 53.65625 14.8125 63.9375 
Q 24.03125 74.21875 39.40625 74.21875 
z
" id="DejaVuSans-79"/>
      <path d="M 25.390625 72.90625 
L 33.6875 72.90625 
L 8.296875 -9.28125 
L 0 -9.28125 
z
" id="DejaVuSans-47"/>
      <path d="M 9.8125 72.90625 
L 19.671875 72.90625 
L 19.671875 8.296875 
L 55.171875 8.296875 
L 55.171875 0 
L 9.8125 0 
z
" id="DejaVuSans-76"/>
      <path d="M 28.609375 0 
L 0.78125 72.90625 
L 11.078125 72.90625 
L 34.1875 11.53125 
L 57.328125 72.90625 
L 67.578125 72.90625 
L 39.796875 0 
z
" id="DejaVuSans-86"/>
     </defs>
     <g transform="translate(335.723438 211.564063)scale(0.1 -0.1)">
      <use xlink:href="#DejaVuSans-79"/>
      <use x="78.710938" xlink:href="#DejaVuSans-51"/>
      <use x="142.333984" xlink:href="#DejaVuSans-47"/>
      <use x="176.025391" xlink:href="#DejaVuSans-72"/>
      <use x="251.220703" xlink:href="#DejaVuSans-76"/>
      <use x="306.761719" xlink:href="#DejaVuSans-86"/>
     </g>
    </g>
    <g id="patch_11">
     <path d="M 307.723438 226.242188 
L 327.723438 226.242188 
L 327.723438 219.242188 
L 307.723438 219.242188 
z
" style="fill:#de8f05;"/>
    </g>
    <g id="text_19">
     <!-- O3/HLVK -->
     <defs>
      <path d="M 9.8125 72.90625 
L 19.671875 72.90625 
L 19.671875 42.09375 
L 52.390625 72.90625 
L 65.09375 72.90625 
L 28.90625 38.921875 
L 67.671875 0 
L 54.6875 0 
L 19.671875 35.109375 
L 19.671875 0 
L 9.8125 0 
z
" id="DejaVuSans-75"/>
     </defs>
     <g transform="translate(335.723438 226.242188)scale(0.1 -0.1)">
      <use xlink:href="#DejaVuSans-79"/>
      <use x="78.710938" xlink:href="#DejaVuSans-51"/>
      <use x="142.333984" xlink:href="#DejaVuSans-47"/>
      <use x="176.025391" xlink:href="#DejaVuSans-72"/>
      <use x="251.220703" xlink:href="#DejaVuSans-76"/>
      <use x="306.761719" xlink:href="#DejaVuSans-86"/>
      <use x="375.169922" xlink:href="#DejaVuSans-75"/>
     </g>
    </g>
    <g id="patch_12">
     <path d="M 307.723438 240.920313 
L 327.723438 240.920313 
L 327.723438 233.920313 
L 307.723438 233.920313 
z
" style="fill:#029e73;"/>
    </g>
    <g id="text_20">
     <!-- O4/HLVK -->
     <g transform="translate(335.723438 240.920313)scale(0.1 -0.1)">
      <use xlink:href="#DejaVuSans-79"/>
      <use x="78.710938" xlink:href="#DejaVuSans-52"/>
      <use x="142.333984" xlink:href="#DejaVuSans-47"/>
      <use x="176.025391" xlink:href="#DejaVuSans-72"/>
      <use x="251.220703" xlink:href="#DejaVuSans-76"/>
      <use x="306.761719" xlink:href="#DejaVuSans-86"/>
      <use x="375.169922" xlink:href="#DejaVuSans-75"/>
     </g>
    </g>
   </g>
  </g>
 </g>
 <defs>
  <clipPath id="pafca7b41cd">
   <rect height="217.44" width="334.8" x="54" y="34.56"/>
  </clipPath>
 </defs>
</svg>
